<svg width="36" height="30" viewBox="0 0 36 30" fill="none" xmlns="http://www.w3.org/2000/svg">
<path opacity="0.7" d="M7.85455 30C5.41091 30 3.49091 29.087 2.09455 27.2609C0.698182 25.3478 0 22.3478 0 18.2609C0 12.5217 1.30909 8.13043 3.92727 5.08696C6.63273 2.04348 10.3418 0.347827 15.0545 0V5.21739C12.4364 5.56522 10.4727 6.43478 9.16364 7.82609C7.85454 9.13043 7.2 11.087 7.2 13.6957C7.2 13.8696 7.2 14.2174 7.2 14.7391C7.2 15.1739 7.2 15.4783 7.2 15.6522C8.07273 15.2174 8.94545 15 9.81818 15C11.4764 15 12.8727 15.6522 14.0073 16.9565C15.1418 18.1739 15.7091 19.7826 15.7091 21.7826C15.7091 24.2174 14.9673 26.2174 13.4836 27.7826C12 29.2609 10.1236 30 7.85455 30ZM28.1455 30C25.7018 30 23.7818 29.087 22.3855 27.2609C20.9891 25.3478 20.2909 22.3478 20.2909 18.2609C20.2909 12.5217 21.6 8.13043 24.2182 5.08696C26.9236 2.04348 30.6327 0.347827 35.3455 0V5.21739C32.7273 5.56522 30.7636 6.43478 29.4545 7.82609C28.1455 9.13043 27.4909 11.087 27.4909 13.6957C27.4909 13.8696 27.4909 14.2174 27.4909 14.7391C27.4909 15.1739 27.4909 15.4783 27.4909 15.6522C28.3636 15.2174 29.2364 15 30.1091 15C31.7673 15 33.1636 15.6522 34.2982 16.9565C35.4327 18.1739 36 19.7826 36 21.7826C36 24.2174 35.2582 26.2174 33.7745 27.7826C32.2909 29.2609 30.4145 30 28.1455 30Z" fill="#F5F5F5"/>
</svg>
