<svg width="250" height="200" viewBox="0 0 143 121" fill="none" xmlns="http://www.w3.org/2000/svg">
<path d="M54.0037 110.881L39.9248 102.753C36.9567 101.039 32.1417 101.039 29.1736 102.753L26.6193 104.229C23.6512 105.943 23.6512 108.723 26.6193 110.438L40.6983 118.565C40.6983 118.565 40.7132 118.574 40.7222 118.577L40.6893 120.739C40.6863 120.97 41.169 121.087 41.4508 120.925L43.6963 119.63C46.3346 120.13 49.3507 119.78 51.4494 118.568L54.0037 117.093C56.9718 115.378 56.9718 112.599 54.0037 110.884V110.881Z" fill="#0D6ECE"/>
<path d="M56.4231 22.6749L42.6888 30.6048C41.7295 31.1594 40.1734 31.1594 39.2171 30.6048L25.4828 22.6749C24.5235 22.1202 24.5235 21.2238 25.4828 20.6692L39.2171 12.7392C40.1764 12.1846 41.7325 12.1846 42.6888 12.7392L56.4231 20.6692C57.3824 21.2238 57.3824 22.1202 56.4231 22.6749Z" stroke="#12183E" stroke-width="0.53" stroke-miterlimit="10"/>
<path d="M75.67 117.342L7.2867 77.8632C6.65411 77.4975 6.65411 76.583 7.2867 76.2173L43.3896 55.3896C44.298 54.8649 45.4163 54.8649 46.3247 55.3896L114.351 94.6645C115.464 95.3061 115.464 96.91 114.351 97.5516L80.0412 117.348C78.689 118.127 77.0251 118.127 75.673 117.348L75.67 117.342Z" fill="#0D6ECE"/>
<path d="M126.626 118.88C133.941 118.88 139.871 115.456 139.871 111.232C139.871 107.008 133.941 103.584 126.626 103.584C119.31 103.584 113.38 107.008 113.38 111.232C113.38 115.456 119.31 118.88 126.626 118.88Z" fill="#12183E"/>
<path d="M76.2825 113.9L7.89925 74.4184C7.26666 74.0526 7.26666 73.1382 7.89925 72.7724L44.0022 51.9448C44.9106 51.4201 46.0289 51.4201 46.9373 51.9448L114.964 91.2196C116.076 91.8612 116.076 93.4652 114.964 94.1068L80.6537 113.903C79.3016 114.683 77.6376 114.683 76.2855 113.903L76.2825 113.9Z" fill="#E4E7EA" stroke="#12183E" stroke-width="0.53" stroke-miterlimit="10"/>
<path d="M116.798 89.379C115.844 89.9426 114.663 89.9487 113.707 89.394L51.6496 53.5999C50.5972 52.9943 50.6002 51.4773 51.6526 50.8717C52.594 50.332 53.7482 50.332 54.6896 50.8746L116.789 86.6867C117.82 87.2834 117.829 88.7704 116.804 89.376L116.798 89.379Z" fill="#12183E"/>
<path d="M86.4125 43.5743C86.4125 43.5743 88.3492 39.374 90.4329 40.945C90.8257 41.2418 91.0865 41.6766 91.2154 42.1503C91.3593 42.6719 91.5212 43.5144 91.5332 44.6477C91.5332 44.9744 91.5692 45.3012 91.6531 45.616C91.911 46.5874 92.6785 48.1464 94.8551 46.4915C95.3198 46.1377 95.7275 45.715 96.0933 45.2593C96.8398 44.3269 98.9654 42.1952 101.022 45.0014" stroke="#8028DD" stroke-width="0.88" stroke-miterlimit="10"/>
<path d="M30.612 47.7505L30.606 49.8971C30.606 49.9331 30.606 49.9691 30.606 50.008L30.612 47.8614C30.612 47.8254 30.612 47.7895 30.612 47.7505Z" fill="#949494"/>
<path d="M30.6089 47.8613L30.6029 50.008C30.5969 50.2478 30.5699 50.4846 30.522 50.7215L30.528 48.5749C30.5759 48.338 30.6029 48.0982 30.6089 47.8613Z" fill="#999999"/>
<path d="M30.528 48.5752L30.522 50.7218C30.4741 50.9557 30.4081 51.1895 30.3212 51.4234L30.3272 49.2767C30.4141 49.0459 30.4801 48.812 30.528 48.5752Z" fill="#9E9E9E"/>
<path d="M30.3271 49.2769L30.3211 51.4235C30.2311 51.6603 30.1202 51.8972 29.9883 52.131L29.9943 49.9844C30.1262 49.7506 30.2371 49.5167 30.3271 49.2769Z" fill="#A3A3A3"/>
<path d="M29.9943 49.9839L29.9883 52.1305C29.8474 52.3824 29.6795 52.6312 29.4877 52.874L29.4937 50.7274C29.6855 50.4846 29.8504 50.2357 29.9943 49.9839Z" fill="#A8A8A8"/>
<path d="M29.4967 50.7275L29.4907 52.8742C29.2689 53.159 29.011 53.4348 28.7202 53.7016L28.7262 51.555C29.017 51.2882 29.2719 51.0094 29.4967 50.7275Z" fill="#ADADAD"/>
<path d="M28.7262 51.5552L28.7202 53.7018C28.2765 54.1125 27.7548 54.5023 27.1522 54.8621L27.1582 52.7154C27.7578 52.3527 28.2825 51.9659 28.7262 51.5552Z" fill="#B3B3B3"/>
<path d="M27.1582 52.7153L27.1522 54.862C27.1013 54.8919 27.0533 54.9219 27.0023 54.9519C26.1779 55.4316 25.2604 55.8303 24.2891 56.1451L24.2951 53.9985C25.2694 53.6837 26.1839 53.285 27.0083 52.8053C27.0593 52.7753 27.1103 52.7453 27.1582 52.7153Z" fill="#B8B8B8"/>
<path d="M27.159 52.7153L27.153 54.862C27.102 54.8919 27.054 54.9219 27.0031 54.9519C26.1786 55.4316 25.2612 55.8303 24.2898 56.1451L24.2958 53.9985C25.2702 53.6837 26.1846 53.285 27.0091 52.8053C27.06 52.7753 27.111 52.7453 27.159 52.7153Z" fill="#B8B8B8"/>
<path d="M24.2928 53.9985L24.2868 56.1452C23.5343 56.388 22.7458 56.5859 21.9363 56.7298L21.9423 54.5832C22.7518 54.4363 23.5403 54.2414 24.2928 53.9985Z" fill="#B3B3B3"/>
<path d="M30.7709 47.7506L30.7649 49.8972C30.7589 51.75 29.5447 53.6028 27.1132 55.0149C22.2233 57.8571 14.2424 57.8571 9.3196 55.0149C6.84318 53.5849 5.60797 51.7051 5.61097 49.8283L5.61696 47.6816C5.61097 49.5584 6.84918 51.4412 9.32559 52.8683C14.2484 55.7105 22.2293 55.7105 27.1192 52.8683C29.5477 51.4562 30.7649 49.6064 30.7709 47.7506Z" fill="#0D6ECE"/>
<path d="M30.7678 47.8615C30.7618 48.1043 30.7318 48.3441 30.6838 48.584C30.6359 48.8208 30.5669 49.0577 30.48 49.2945C30.39 49.5344 30.2761 49.7742 30.1442 50.0111C30.0003 50.2659 29.8324 50.5178 29.6375 50.7636C29.4126 51.0514 29.1518 51.3302 28.858 51.6031C28.4083 52.0198 27.8776 52.4125 27.269 52.7783C27.2181 52.8083 27.1671 52.8383 27.1161 52.8683C26.2797 53.3539 25.3532 53.7557 24.3669 54.0765C23.6024 54.3253 22.8049 54.5202 21.9834 54.6701C21.4557 54.766 20.9191 54.841 20.3764 54.895C19.9117 54.9399 19.447 54.9729 18.9763 54.9879C18.5476 55.0029 18.1159 55.0059 17.6842 54.9939C17.2674 54.9849 16.8537 54.9609 16.4429 54.9279C16.0322 54.895 15.6215 54.847 15.2167 54.79C14.797 54.7301 14.3803 54.6581 13.9665 54.5742C13.5198 54.4812 13.0821 54.3733 12.6534 54.2534C12.1287 54.1035 11.619 53.9326 11.1273 53.7377C10.4888 53.4859 9.88314 53.198 9.3195 52.8713C6.84309 51.4412 5.60788 49.5614 5.61088 47.6846L5.60488 49.8312C5.59888 51.708 6.83709 53.5908 9.31351 55.0179C9.88014 55.3447 10.4858 55.6325 11.1213 55.8843C11.613 56.0792 12.1227 56.2501 12.6474 56.4C13.0761 56.5229 13.5138 56.6308 13.9605 56.7208C14.3713 56.8047 14.788 56.8797 15.2107 56.9367C15.6155 56.9936 16.0262 57.0386 16.4369 57.0746C16.8507 57.1075 17.2644 57.1315 17.6782 57.1405C18.1099 57.1525 18.5386 57.1495 18.9703 57.1345C19.438 57.1195 19.9057 57.0866 20.3704 57.0416C20.9131 56.9876 21.4497 56.9127 21.9774 56.8167C22.7989 56.6698 23.5964 56.472 24.3609 56.2231C25.3472 55.9023 26.2737 55.5006 27.1101 55.0149C27.1611 54.9849 27.2121 54.9549 27.263 54.9249C27.8716 54.5592 28.4023 54.1634 28.852 53.7497C29.1458 53.4799 29.4067 53.198 29.6315 52.9102C29.8264 52.6644 29.9943 52.4125 30.1382 52.1577C30.2701 51.9209 30.384 51.684 30.474 51.4412C30.5609 51.2073 30.6299 50.9705 30.6778 50.7306C30.7258 50.4908 30.7528 50.2479 30.7618 50.0081C30.7618 49.9721 30.7618 49.9331 30.7618 49.8972L30.7678 47.7505C30.7678 47.7865 30.7678 47.8255 30.7678 47.8615Z" fill="#0D6ECE"/>
<path d="M26.9481 42.627C31.808 45.4333 31.835 49.9993 27.0081 52.8055C22.1812 55.6117 14.2992 55.6117 9.43932 52.8055C4.57943 49.9993 4.55245 45.4362 9.38236 42.63C14.2123 39.8238 22.0912 39.8238 26.9511 42.63L26.9481 42.627Z" fill="white" stroke="#12183E" stroke-width="0.53" stroke-miterlimit="10"/>
<path d="M108.854 101.878L109.645 106.462C110.667 112.383 115.908 116.634 121.913 116.419C127.933 116.203 132.862 111.562 133.438 105.566L133.792 101.881H108.854V101.878Z" fill="white" stroke="#12183E" stroke-width="0.53" stroke-miterlimit="10"/>
<path d="M121.323 108.813C128.209 108.813 133.792 105.59 133.792 101.614C133.792 97.6388 128.209 94.416 121.323 94.416C114.436 94.416 108.854 97.6388 108.854 101.614C108.854 105.59 114.436 108.813 121.323 108.813Z" fill="white" stroke="#12183E" stroke-width="0.53" stroke-miterlimit="10"/>
<path d="M132.35 103.278C132.32 103.338 132.29 103.401 132.254 103.464C131.78 104.336 130.977 105.161 129.84 105.88C129.702 105.967 129.564 106.051 129.415 106.135C128.824 106.474 128.185 106.765 127.514 107.014L127.22 107.116C127.157 107.14 127.091 107.161 127.025 107.179C126.947 107.206 126.866 107.233 126.785 107.254C126.677 107.287 126.569 107.32 126.458 107.353C126.416 107.365 126.374 107.377 126.329 107.389C126.168 107.434 126.003 107.475 125.838 107.514C125.661 107.556 125.481 107.598 125.304 107.634C125.295 107.634 125.292 107.634 125.286 107.64C125.112 107.673 124.941 107.709 124.767 107.739L124.729 107.748C124.546 107.781 124.363 107.808 124.177 107.835C123.991 107.865 123.799 107.889 123.61 107.91C123.424 107.931 123.229 107.949 123.041 107.967C122.705 107.997 122.369 108.018 122.03 108.027C121.607 108.042 121.191 108.045 120.771 108.033C120.651 108.033 120.534 108.024 120.417 108.021C120.282 108.015 120.147 108.009 120.016 108C119.86 107.988 119.704 107.976 119.548 107.964C119.539 107.964 119.533 107.964 119.524 107.964C119.359 107.952 119.194 107.931 119.029 107.913C118.942 107.901 118.858 107.892 118.774 107.88C118.684 107.871 118.594 107.859 118.507 107.847C118.412 107.835 118.319 107.82 118.223 107.802C118.115 107.787 118.007 107.769 117.902 107.748C117.833 107.736 117.764 107.724 117.695 107.709C117.584 107.691 117.473 107.67 117.365 107.643C117.29 107.631 117.212 107.613 117.137 107.595C117.017 107.568 116.898 107.541 116.778 107.511C116.724 107.499 116.67 107.487 116.616 107.472C116.493 107.439 116.367 107.41 116.244 107.371C116.13 107.344 116.016 107.311 115.905 107.272C115.659 107.197 115.419 107.116 115.183 107.032C115.159 107.023 115.138 107.017 115.114 107.005C114.445 106.759 113.809 106.471 113.225 106.135C112.134 105.515 111.309 104.795 110.751 104.034C110.617 103.848 110.497 103.653 110.392 103.461C110.359 103.398 110.326 103.338 110.296 103.275C109.225 101.087 110.203 98.6341 113.225 96.9132C117.698 94.3649 124.947 94.3649 129.415 96.9132C132.443 98.6371 133.42 101.084 132.347 103.278H132.35Z" fill="#D9D3E2"/>
<path d="M132.35 103.278C132.32 103.338 132.29 103.401 132.254 103.464C131.78 104.337 130.976 105.161 129.84 105.881L129.849 105.929C129.13 106.354 128.344 106.717 127.517 107.014L127.223 107.116C127.16 107.14 127.094 107.161 127.028 107.179C126.95 107.206 126.869 107.233 126.788 107.254C126.68 107.287 126.572 107.32 126.461 107.353C126.419 107.365 126.377 107.377 126.332 107.389C126.171 107.434 126.006 107.476 125.841 107.515C125.664 107.557 125.484 107.599 125.307 107.635C125.298 107.635 125.295 107.635 125.289 107.641C125.115 107.674 124.944 107.71 124.77 107.74L124.731 107.749C124.549 107.782 124.366 107.808 124.18 107.835C123.994 107.865 123.802 107.889 123.613 107.91C123.427 107.931 123.232 107.949 123.044 107.967C122.708 107.997 122.372 108.018 122.033 108.027C121.61 108.042 121.194 108.045 120.774 108.033C120.654 108.033 120.537 108.024 120.42 108.021C120.285 108.015 120.15 108.009 120.018 108C119.863 107.988 119.707 107.976 119.551 107.964C119.542 107.964 119.536 107.964 119.527 107.964C119.362 107.952 119.197 107.931 119.032 107.913C118.945 107.901 118.861 107.892 118.777 107.88C118.687 107.871 118.597 107.859 118.51 107.847C118.415 107.835 118.322 107.82 118.226 107.803C118.118 107.788 118.01 107.77 117.905 107.749C117.836 107.737 117.767 107.725 117.698 107.71C117.587 107.692 117.476 107.671 117.368 107.644C117.293 107.632 117.215 107.614 117.14 107.596C117.02 107.569 116.9 107.542 116.781 107.512C116.727 107.5 116.673 107.488 116.619 107.473C116.496 107.44 116.37 107.41 116.247 107.371C116.133 107.344 116.019 107.311 115.908 107.272C115.662 107.197 115.422 107.116 115.186 107.032C115.162 107.023 115.141 107.017 115.117 107.005C114.448 106.759 113.812 106.471 113.228 106.136C112.137 105.515 111.312 104.795 110.754 104.034C110.62 103.848 110.5 103.653 110.395 103.461C110.362 103.398 110.329 103.338 110.299 103.275C110.883 102.442 111.729 101.659 112.826 100.979C117.518 98.0617 125.133 98.0617 129.822 100.979C130.926 101.659 131.768 102.445 132.353 103.275L132.35 103.278Z" fill="#993A00"/>
<path d="M132.35 103.278C132.32 103.338 132.29 103.401 132.254 103.464C131.78 104.337 130.977 105.161 129.84 105.881C129.316 102.538 123.071 102.625 123.071 102.625C120.573 102.685 119.362 102.151 118.774 101.638C118.133 101.081 117.326 100.778 116.514 100.907C113.549 101.387 111.666 103.02 110.751 104.037C110.617 103.851 110.497 103.656 110.392 103.464C110.359 103.401 110.326 103.341 110.296 103.278C110.88 102.445 111.726 101.662 112.823 100.982C117.515 98.0647 125.13 98.0647 129.819 100.982C130.923 101.662 131.765 102.448 132.35 103.278Z" fill="#E88916"/>
<path d="M122.381 101.953C123.194 101.953 123.853 101.539 123.853 101.027C123.853 100.515 123.194 100.101 122.381 100.101C121.568 100.101 120.909 100.515 120.909 101.027C120.909 101.539 121.568 101.953 122.381 101.953Z" fill="#993A00"/>
<path d="M126.767 101.812C127.118 101.812 127.403 101.634 127.403 101.413C127.403 101.193 127.118 101.015 126.767 101.015C126.416 101.015 126.132 101.193 126.132 101.413C126.132 101.634 126.416 101.812 126.767 101.812Z" fill="#993A00"/>
<path d="M130.83 103.971C130.962 103.971 131.069 103.904 131.069 103.821C131.069 103.738 130.962 103.671 130.83 103.671C130.697 103.671 130.59 103.738 130.59 103.821C130.59 103.904 130.697 103.971 130.83 103.971Z" fill="#993A00"/>
<path d="M118.415 100.262C118.663 100.262 118.864 100.136 118.864 99.9801C118.864 99.8244 118.663 99.6982 118.415 99.6982C118.166 99.6982 117.965 99.8244 117.965 99.9801C117.965 100.136 118.166 100.262 118.415 100.262Z" fill="#993A00"/>
<path d="M124.648 102.235C124.896 102.235 125.097 102.109 125.097 101.953C125.097 101.798 124.896 101.671 124.648 101.671C124.399 101.671 124.198 101.798 124.198 101.953C124.198 102.109 124.399 102.235 124.648 102.235Z" fill="#993A00"/>
<path d="M125.175 100.382C125.424 100.382 125.625 100.256 125.625 100.1C125.625 99.9445 125.424 99.8184 125.175 99.8184C124.927 99.8184 124.725 99.9445 124.725 100.1C124.725 100.256 124.927 100.382 125.175 100.382Z" fill="#993A00"/>
<path d="M115.923 100.748C116.099 100.748 116.241 100.658 116.241 100.547C116.241 100.436 116.099 100.346 115.923 100.346C115.748 100.346 115.605 100.436 115.605 100.547C115.605 100.658 115.748 100.748 115.923 100.748Z" fill="#993A00"/>
<path d="M129.124 103.05C129.299 103.05 129.442 102.96 129.442 102.849C129.442 102.738 129.299 102.648 129.124 102.648C128.948 102.648 128.806 102.738 128.806 102.849C128.806 102.96 128.948 103.05 129.124 103.05Z" fill="#993A00"/>
<path d="M120.183 101.344C120.298 101.344 120.39 101.287 120.39 101.215C120.39 101.144 120.298 101.086 120.183 101.086C120.069 101.086 119.977 101.144 119.977 101.215C119.977 101.287 120.069 101.344 120.183 101.344Z" fill="#993A00"/>
<path d="M126.833 100.676C126.947 100.676 127.04 100.618 127.04 100.547C127.04 100.476 126.947 100.418 126.833 100.418C126.719 100.418 126.626 100.476 126.626 100.547C126.626 100.618 126.719 100.676 126.833 100.676Z" fill="#993A00"/>
<path d="M129.846 101.671C129.96 101.671 130.053 101.614 130.053 101.542C130.053 101.471 129.96 101.414 129.846 101.414C129.732 101.414 129.639 101.471 129.639 101.542C129.639 101.614 129.732 101.671 129.846 101.671Z" fill="#993A00"/>
<path d="M46.6703 93.3396L76.9149 110.815C77.8743 111.37 79.0556 111.37 80.0149 110.815L110.089 93.4536C110.7 93.0998 110.7 92.2213 110.089 91.8676L79.6822 74.2958C78.9386 73.8671 78.0212 73.8641 77.2747 74.2958L46.6703 91.9665C46.1426 92.2723 46.1426 93.0338 46.6703 93.3396Z" fill="white" stroke="#12183E" stroke-width="0.53" stroke-miterlimit="10"/>
<path d="M55.0498 22.5848L42.5328 29.8102C41.6573 30.3139 40.2423 30.3139 39.3668 29.8102L26.8498 22.5848C25.9744 22.0811 25.9744 21.2626 26.8498 20.756L39.3668 13.5306C40.2423 13.0269 41.6573 13.0269 42.5328 13.5306L55.0498 20.756C55.9252 21.2596 55.9252 22.0781 55.0498 22.5848Z" fill="#F7F7F7" stroke="#12183E" stroke-width="0.53" stroke-miterlimit="10"/>
<path d="M39.5379 24.5124L35.7363 22.3178C35.1966 22.006 35.1966 21.4963 35.7363 21.1845L41.9003 17.6258C42.3261 17.3799 43.0186 17.3799 43.4444 17.6258L46.8292 19.5805C47.5457 19.9943 47.5457 20.6688 46.8292 21.0826L40.887 24.5124C40.5152 24.7282 39.9066 24.7282 39.5379 24.5124Z" fill="white" stroke="#12183E" stroke-width="0.53" stroke-miterlimit="10"/>
<path d="M46.0465 15.5572V20.0123C46.0465 20.486 45.7887 20.9208 45.375 21.1516L40.9168 23.604C40.8449 23.643 40.7729 23.676 40.698 23.703C40.572 23.751 40.4431 23.7779 40.3082 23.7959C40.1853 23.8109 40.0564 23.8079 39.9304 23.7959C39.7236 23.7689 39.5167 23.706 39.3278 23.6011L37.4211 22.5487C37.0613 22.3479 36.8364 21.9671 36.8364 21.5534V16.7205L39.9334 16.3307L40.3112 16.2827L40.701 16.2318L46.0495 15.5542L46.0465 15.5572Z" fill="#0088FF" stroke="#12183E" stroke-width="0.53" stroke-miterlimit="10"/>
<path d="M46.0462 15.5572V20.0123C46.0462 20.486 45.7884 20.9208 45.3746 21.1516L40.9165 23.6041C40.8445 23.643 40.7726 23.676 40.6976 23.703V16.2318L46.0462 15.5542V15.5572Z" fill="#0D6ECE"/>
<path d="M40.3083 16.2856V23.7988C40.1854 23.8138 40.0565 23.8108 39.9305 23.7988V16.3336L40.3083 16.2856Z" fill="#0D6ECE"/>
<path d="M46.0465 15.5572V20.0123C46.0465 20.486 45.7887 20.9208 45.375 21.1516L40.9168 23.604C40.8449 23.643 40.7729 23.676 40.698 23.703C40.572 23.751 40.4431 23.7779 40.3082 23.7959C40.1853 23.8109 40.0564 23.8079 39.9304 23.7959C39.7236 23.7689 39.5167 23.706 39.3278 23.6011L37.4211 22.5487C37.0613 22.3479 36.8364 21.9671 36.8364 21.5534V16.7205L39.9334 16.3307L40.3112 16.2827L40.701 16.2318L46.0495 15.5542L46.0465 15.5572Z" stroke="#12183E" stroke-width="0.53" stroke-miterlimit="10"/>
<path d="M32.3178 20.6482L29.9223 22.0303C29.6615 22.1802 29.3377 22.1802 29.0769 22.0303L28.4623 21.6765C28.2914 21.5776 28.2914 21.3318 28.4623 21.2328L30.8577 19.8507C31.1186 19.7008 31.4424 19.7008 31.7032 19.8507L32.3178 20.2045C32.4887 20.3034 32.4887 20.5493 32.3178 20.6482Z" fill="#12183E" stroke="white" stroke-width="0.53" stroke-miterlimit="10"/>
<path d="M39.697 18.792L37.3435 17.4339C36.6659 17.0411 36.6659 16.3995 37.3435 16.0098L41.6368 13.5304C42.0685 13.2815 42.773 13.2815 43.2018 13.5304L45.6092 14.9215C46.2448 15.2903 46.2448 15.8899 45.6092 16.2586L41.22 18.792C40.8003 19.0349 40.1137 19.0349 39.691 18.792H39.697Z" fill="#F7F7F7" stroke="#12183E" stroke-width="0.53" stroke-miterlimit="10"/>
<path d="M76.6568 40.2226C73.5298 38.9874 54.9147 27.6036 53.5026 26.3624C52.0905 25.1212 51.1551 23.6762 50.5285 22.0062C48.13 15.6173 44.9371 13.2788 44.9371 13.2788C44.9371 13.2788 42.7964 11.2431 42.0859 12.8261C41.9809 13.057 41.945 13.3148 41.945 13.5696V15.9771C41.945 16.2769 41.7141 16.5317 41.4143 16.5467C41.4083 16.5467 41.4023 16.5467 41.3933 16.5467C41.0845 16.5527 40.8417 16.2859 40.8417 15.9771V13.048C40.8417 11.8128 41.891 10.7814 43.1202 10.9103C44.0526 11.0093 45.066 11.7348 45.8515 12.4214C45.8515 12.4214 48.9905 14.8558 51.3889 21.2447C52.0155 22.9146 53.0259 24.4227 54.363 25.6009C55.7751 26.8421 74.0544 37.98 77.1844 39.2152L76.6538 40.2256L76.6568 40.2226Z" fill="white" stroke="#12183E" stroke-width="0.53" stroke-miterlimit="10"/>
<path d="M118.654 83.0531L120.851 84.3213C121.82 84.8789 123.01 84.8789 123.978 84.3213L136.315 77.2128C136.81 76.928 136.81 76.2175 136.315 75.9326L81.2585 44.147C81.2585 44.147 66.0972 52.7005 66.382 52.8774C68.5346 54.2145 118.651 83.0561 118.651 83.0561L118.654 83.0531Z" fill="#12183E"/>
<path d="M134.523 39.5508L120.84 82.2075C120.744 82.5074 120.564 82.7562 120.336 82.9301C120.216 83.029 120.084 83.101 119.947 83.1549C119.542 83.3108 119.068 83.2958 118.651 83.056L58.4709 48.3262C57.7633 47.9185 57.4365 47.073 57.6884 46.2965L71.5635 3.08517C71.6894 2.69242 71.9293 2.37462 72.2291 2.15276C72.346 2.06282 72.4719 1.99087 72.6068 1.9339C73.1315 1.70305 73.7581 1.70905 74.3067 2.02684L133.159 36.0041C134.391 36.7146 134.964 38.1927 134.526 39.5508H134.523Z" fill="white" stroke="#12183E" stroke-width="0.53" stroke-miterlimit="10"/>
<path d="M135.665 36.8556L134.469 37.5452C134.229 36.9126 133.777 36.3609 133.156 36.0041L74.3037 2.02688C73.755 1.71208 73.1284 1.70309 72.6038 1.93394L73.734 1.27736C74.3906 0.902603 75.1971 0.908599 75.8507 1.28936L134.121 35.1827C134.811 35.5844 135.339 36.172 135.662 36.8556H135.665Z" fill="#0088FF" stroke="#12183E" stroke-width="0.53" stroke-miterlimit="10"/>
<path d="M136.039 38.4534C136.048 38.8282 135.997 39.209 135.886 39.5837C135.877 39.6167 135.868 39.6497 135.856 39.6827L122.566 81.2541C122.467 81.5689 122.251 81.8357 121.963 82.0036L120.341 82.93C120.569 82.7561 120.749 82.5073 120.845 82.2075L134.285 40.3093L134.528 39.5507C134.57 39.4218 134.603 39.2929 134.624 39.164C134.726 38.6093 134.669 38.0517 134.474 37.545L135.67 36.8555C135.907 37.3502 136.039 37.8988 136.045 38.4564L136.039 38.4534Z" fill="#12183E" stroke="#12183E" stroke-width="0.53" stroke-miterlimit="10"/>
<path d="M105.076 83.1672C105.99 83.1672 106.731 82.739 106.731 82.2108C106.731 81.6826 105.99 81.2544 105.076 81.2544C104.162 81.2544 103.421 81.6826 103.421 82.2108C103.421 82.739 104.162 83.1672 105.076 83.1672Z" stroke="#DEE4FF" stroke-width="0.53" stroke-miterlimit="10"/>
<path d="M108.724 85.2682C109.638 85.2682 110.379 84.8401 110.379 84.3119C110.379 83.7837 109.638 83.3555 108.724 83.3555C107.81 83.3555 107.069 83.7837 107.069 84.3119C107.069 84.8401 107.81 85.2682 108.724 85.2682Z" stroke="#DEE4FF" stroke-width="0.53" stroke-miterlimit="10"/>
<path d="M43.2707 90.3262L74.6696 72.2148C74.9394 72.0589 74.9394 71.6692 74.6696 71.5133L64.2722 65.5081C63.6486 65.1483 62.8811 65.1483 62.2605 65.5081L30.8916 83.6345C30.6218 83.7904 30.6218 84.1802 30.8916 84.3361L41.2619 90.3232C41.8855 90.683 42.6501 90.683 43.2737 90.3232L43.2707 90.3262Z" fill="white" stroke="#12183E" stroke-width="0.53" stroke-miterlimit="10"/>
<path d="M13.3946 74.2145L26.3883 81.7397C26.9309 82.0545 27.5995 82.0545 28.1452 81.7397L59.1453 63.8591C59.631 63.5803 59.631 62.8788 59.1453 62.5969L46.1426 55.0838C45.6 54.769 44.9314 54.769 44.3888 55.0838L13.3976 72.9553C12.9119 73.2341 12.9119 73.9357 13.3976 74.2175L13.3946 74.2145Z" fill="white" stroke="#12183E" stroke-width="0.53" stroke-miterlimit="10"/>
<path d="M68.1486 116.715L62.0805 113.223C61.307 112.776 61.307 111.661 62.0805 111.214C62.869 110.758 63.8374 110.758 64.6259 111.214L70.682 114.71C71.4675 115.162 71.4525 116.305 70.652 116.733L70.625 116.748C69.8485 117.165 68.9131 117.153 68.1486 116.712V116.715Z" fill="#12183E"/>
<path d="M63.7619 113.256C64.5633 113.256 65.2129 112.88 65.2129 112.416C65.2129 111.953 64.5633 111.577 63.7619 111.577C62.9605 111.577 62.3108 111.953 62.3108 112.416C62.3108 112.88 62.9605 113.256 63.7619 113.256Z" fill="white"/>
<path d="M78.8909 80.0401L75.9108 78.3132C75.1523 77.8725 75.1523 76.7752 75.9108 76.3375C76.7113 75.8758 77.6947 75.8758 78.4921 76.3375L81.4872 78.0674C82.2488 78.5081 82.2488 79.6054 81.4872 80.0461C80.6838 80.5108 79.6914 80.5108 78.8879 80.0461L78.8909 80.0401Z" fill="#12183E"/>
<path d="M77.3399 78.1213C78.1413 78.1213 78.7909 77.7455 78.7909 77.2818C78.7909 76.8182 78.1413 76.4424 77.3399 76.4424C76.5385 76.4424 75.8888 76.8182 75.8888 77.2818C75.8888 77.7455 76.5385 78.1213 77.3399 78.1213Z" fill="white"/>
<path d="M111.612 83.3496V86.8634C111.612 87.1092 111.773 87.355 112.1 87.5439C112.751 87.9187 113.803 87.9187 114.454 87.5439C114.775 87.358 114.936 87.1182 114.939 86.8754V83.3526H111.612V83.3496Z" fill="white" stroke="#12183E" stroke-width="0.53" stroke-miterlimit="10"/>
<path d="M113.276 84.3094C114.194 84.3094 114.939 83.8799 114.939 83.35C114.939 82.8202 114.194 82.3906 113.276 82.3906C112.357 82.3906 111.612 82.8202 111.612 83.35C111.612 83.8799 112.357 84.3094 113.276 84.3094Z" fill="white" stroke="#12183E" stroke-width="0.53" stroke-miterlimit="10"/>
<path d="M112.415 81.4854V83.2992C112.415 83.4251 112.499 83.554 112.667 83.65C113.003 83.8448 113.545 83.8448 113.881 83.65C114.046 83.554 114.13 83.4311 114.133 83.3052V81.4884H112.415V81.4854Z" fill="white" stroke="#12183E" stroke-width="0.53" stroke-miterlimit="10"/>
<path d="M80.5003 98.4541C77.0225 100.463 71.3861 100.463 67.9083 98.4541C67.6295 98.2923 67.3747 98.1244 67.1378 97.9475C66.817 97.7046 66.3823 97.6896 65.9626 97.9385L65.5279 98.1963C65.3929 98.2743 65.3 98.3882 65.249 98.5171C65.1261 98.2233 65.219 97.8545 65.5279 97.6687L65.9626 97.4108C66.3823 97.159 66.817 97.177 67.1378 97.4198C67.3717 97.5967 67.6265 97.7646 67.9083 97.9265C71.3831 99.9352 77.0195 99.9352 80.5003 97.9265C82.1222 96.9881 82.9887 95.7829 83.0936 94.5566C83.2195 95.9597 82.3531 97.3838 80.5003 98.4541Z" fill="#12183E" stroke="#12183E" stroke-width="0.37" stroke-miterlimit="10"/>
<path d="M85.9058 94.5446C85.7919 92.9077 84.6526 91.2887 82.485 90.0355C77.9129 87.3942 70.4987 87.3942 65.9236 90.0355C65.4349 90.3143 65.0002 90.6141 64.6194 90.9319C64.5445 90.9949 64.4845 91.0698 64.4485 91.1508C64.4365 91.1268 64.4275 91.1028 64.4185 91.0788C64.3466 90.845 64.4066 90.5752 64.6194 90.4043C65.0002 90.0895 65.4349 89.7867 65.9236 89.5078C70.4987 86.8665 77.9129 86.8665 82.485 89.5078C84.8865 90.893 86.0257 92.7308 85.9058 94.5446Z" fill="#12183E" stroke="#12183E" stroke-width="0.37" stroke-miterlimit="10"/>
<path d="M79.4359 88.7701L77.9459 89.6306C74.654 88.7491 70.6245 89.0939 67.9113 90.6619C67.4885 90.9047 67.1198 91.1686 66.802 91.4414C66.3013 91.8761 65.5878 91.9571 65.0121 91.6273L64.7093 91.4504C64.5864 91.3754 64.4995 91.2735 64.4485 91.1566C64.4845 91.0756 64.5444 91.0007 64.6194 90.9377C65.0001 90.6229 65.4349 90.3201 65.9235 90.0413C69.5812 87.9307 75.0557 87.5049 79.4359 88.7731V88.7701Z" fill="#0088FF"/>
<path d="M85.9028 94.5444C85.8788 94.9402 85.7949 95.3329 85.651 95.7197C85.1923 96.9489 84.137 98.1181 82.482 99.0715C77.9099 101.716 70.4957 101.716 65.9206 99.0715C65.7767 98.9876 65.6358 98.9036 65.5009 98.8167C65.381 98.7417 65.297 98.6368 65.249 98.5199C65.303 98.391 65.393 98.277 65.5279 98.1991L65.9626 97.9412C66.3823 97.6894 66.817 97.7074 67.1378 97.9502C67.3717 98.1271 67.6265 98.295 67.9083 98.4569C71.3831 100.466 77.0195 100.466 80.5003 98.4569C82.3531 97.3866 83.2195 95.9625 83.0936 94.5594C83.2195 93.1563 82.3531 91.7322 80.5003 90.6619C79.7358 90.2212 78.8693 89.8764 77.9429 89.6306C74.651 88.7491 70.6216 89.0939 67.9083 90.6619C67.4856 90.9047 67.1168 91.1686 66.7991 91.4414C66.2984 91.8761 65.5848 91.9571 65.0092 91.6273L64.7064 91.4504C64.5835 91.3754 64.4965 91.2735 64.4456 91.1566C64.4815 91.0756 64.5415 91.0007 64.6164 90.9377C64.9972 90.6229 65.4319 90.3201 65.9206 90.0413C69.5783 87.9307 75.0528 87.5049 79.433 88.7731C80.5333 89.0879 81.5646 89.5106 82.482 90.0413C84.6496 91.2945 85.7889 92.9135 85.9028 94.5504V94.5444Z" stroke="#12183E" stroke-width="0.53" stroke-miterlimit="10"/>
<path d="M71.416 96.9943L70.8224 96.6525L70.9783 95.3034C70.9873 95.2014 70.9903 95.1085 70.9843 95.0305C70.9783 94.9526 70.9573 94.8807 70.9213 94.8207C70.8853 94.7607 70.8224 94.7038 70.7384 94.6558C70.6455 94.6018 70.5436 94.5658 70.4326 94.5509C70.3247 94.5359 70.2138 94.5389 70.1058 94.5598C69.9979 94.5808 69.896 94.6168 69.803 94.6708C69.7071 94.7248 69.6441 94.7847 69.6111 94.8477C69.5782 94.9106 69.5782 94.9736 69.6111 95.0395C69.6441 95.1055 69.7131 95.1655 69.815 95.2254L69.0325 95.6781C68.7987 95.5432 68.6518 95.3963 68.5858 95.2404C68.5198 95.0815 68.5378 94.9226 68.6368 94.7607C68.7357 94.5988 68.9096 94.4429 69.1614 94.299C69.4223 94.1491 69.6891 94.0442 69.9679 93.9842C70.2467 93.9243 70.5166 93.9093 70.7744 93.9363C71.0352 93.9662 71.2661 94.0382 71.473 94.1581C71.6049 94.2331 71.7068 94.323 71.7818 94.4279C71.8567 94.5329 71.9047 94.6678 71.9257 94.8357C71.9437 95.0036 71.9377 95.2194 71.9077 95.4893L71.8777 95.942L71.8987 95.954L73.2838 95.1535L73.9494 95.5372L71.419 96.9973L71.416 96.9943Z" fill="black"/>
<path d="M75.7722 94.5329C75.5233 94.6768 75.2565 94.7788 74.9717 94.8387C74.6869 94.8987 74.4111 94.9137 74.1412 94.8897C73.8714 94.8627 73.6316 94.7907 73.4217 94.6768L74.2222 94.2151C74.3541 94.2841 74.507 94.3141 74.6779 94.3021C74.8488 94.2901 75.0017 94.2481 75.1336 94.1701C75.2385 94.1102 75.3075 94.0442 75.3405 93.9723C75.3734 93.9003 75.3734 93.8254 75.3375 93.7534C75.3015 93.6815 75.2265 93.6125 75.1186 93.5495C75.0107 93.4866 74.8907 93.4416 74.7618 93.4206C74.6329 93.3996 74.507 93.3996 74.3781 93.4206C74.2492 93.4416 74.1352 93.4806 74.0303 93.5405C73.9314 93.5975 73.8594 93.6635 73.8144 93.7414C73.7695 93.8194 73.7635 93.8913 73.7964 93.9633L72.93 94.3051L71.2361 93.1568L73.4307 91.8916L74.0963 92.2754L72.5822 93.1508L73.3108 93.6605L73.3317 93.6485C73.2928 93.5615 73.3078 93.4626 73.3707 93.3547C73.4337 93.2467 73.5476 93.1448 73.7095 93.0519C73.9134 92.9349 74.1442 92.857 74.3991 92.818C74.6569 92.779 74.9147 92.782 75.1756 92.827C75.4364 92.872 75.6762 92.9559 75.8921 93.0788C76.126 93.2138 76.2789 93.3667 76.3508 93.5346C76.4228 93.7024 76.4078 93.8733 76.3118 94.0472C76.2159 94.2211 76.036 94.386 75.7692 94.5389L75.7722 94.5329Z" fill="black"/>
<path d="M75.5413 92.2842L75.4004 92.2033C75.2895 92.1403 75.2115 92.0684 75.1696 91.9874C75.1246 91.9065 75.1216 91.8255 75.1546 91.7416C75.1876 91.6576 75.2685 91.5797 75.3974 91.5047C75.5293 91.4298 75.6672 91.3788 75.8141 91.3608C75.9611 91.3398 76.102 91.3428 76.2399 91.3698C76.3778 91.3968 76.5037 91.4418 76.6146 91.5047L76.7555 91.5857C76.8665 91.6486 76.9444 91.7206 76.9894 91.8015C77.0344 91.8825 77.0374 91.9634 77.0014 92.0474C76.9654 92.1313 76.8815 92.2093 76.7526 92.2872C76.6236 92.3652 76.4857 92.4101 76.3388 92.4311C76.1919 92.4521 76.051 92.4491 75.9131 92.4221C75.7752 92.3952 75.6523 92.3502 75.5443 92.2872L75.5413 92.2842ZM75.8172 91.9634L75.9581 92.0444C76.015 92.0774 76.084 92.1013 76.1589 92.1133C76.2369 92.1253 76.3088 92.1133 76.3808 92.0714C76.4557 92.0264 76.4827 91.9844 76.4587 91.9394C76.4348 91.8945 76.3928 91.8585 76.3358 91.8255L76.1949 91.7446C76.1379 91.7116 76.072 91.6876 75.994 91.6696C75.9191 91.6546 75.8411 91.6696 75.7632 91.7146C75.6912 91.7566 75.6672 91.8015 75.6942 91.8465C75.7212 91.8915 75.7602 91.9305 75.8172 91.9634ZM77.7509 93.3366L76.9234 90.7522L77.2772 90.5483L78.1047 93.1327L77.7509 93.3366ZM78.4345 92.3682L78.2936 92.2872C78.1856 92.2243 78.1077 92.1523 78.0627 92.0714C78.0177 91.9904 78.0117 91.9095 78.0447 91.8255C78.0777 91.7416 78.1617 91.6606 78.2906 91.5857C78.4225 91.5107 78.5604 91.4598 78.7073 91.4418C78.8542 91.4208 78.9951 91.4238 79.133 91.4508C79.2709 91.4777 79.3969 91.5227 79.5048 91.5857L79.6457 91.6666C79.7536 91.7296 79.8316 91.8015 79.8765 91.8825C79.9215 91.9634 79.9275 92.0444 79.8915 92.1313C79.8586 92.2153 79.7746 92.2962 79.6427 92.3712C79.5108 92.4461 79.3729 92.4941 79.226 92.5151C79.0791 92.5361 78.9381 92.5301 78.8002 92.5031C78.6623 92.4761 78.5364 92.4311 78.4285 92.3682H78.4345ZM78.7073 92.0474L78.8482 92.1283C78.9022 92.1613 78.9711 92.1823 79.0491 92.1973C79.127 92.2123 79.202 92.1973 79.2769 92.1553C79.3519 92.1103 79.3789 92.0684 79.3549 92.0234C79.3309 91.9784 79.2919 91.9424 79.232 91.9095L79.0911 91.8285C79.0341 91.7955 78.9651 91.7716 78.8902 91.7566C78.8152 91.7416 78.7373 91.7566 78.6593 91.8015C78.5874 91.8435 78.5634 91.8885 78.5874 91.9335C78.6114 91.9784 78.6503 92.0174 78.7103 92.0534L78.7073 92.0474Z" fill="black"/>
<path d="M77.748 87.2954V89.1092C77.748 89.2352 77.832 89.3641 77.9999 89.46C78.3357 89.6549 78.8783 89.6549 79.2141 89.46C79.379 89.3641 79.4629 89.2412 79.4659 89.1152V87.2984H77.748V87.2954Z" fill="white" stroke="#12183E" stroke-width="0.53" stroke-miterlimit="10"/>
<path d="M76.9415 84.2251V87.7389C76.9415 87.9847 77.1034 88.2305 77.4302 88.4194C78.0808 88.7942 79.1331 88.7942 79.7837 88.4194C80.1045 88.2335 80.2664 87.9937 80.2694 87.7508V84.2281H76.9415V84.2251Z" fill="white" stroke="#12183E" stroke-width="0.53" stroke-miterlimit="10"/>
<path d="M78.6055 85.1844C79.5244 85.1844 80.2694 84.7549 80.2694 84.225C80.2694 83.6952 79.5244 83.2656 78.6055 83.2656C77.6865 83.2656 76.9415 83.6952 76.9415 84.225C76.9415 84.7549 77.6865 85.1844 78.6055 85.1844Z" fill="#12183E" stroke="#12183E" stroke-width="0.53" stroke-miterlimit="10"/>
<path d="M113.275 81.9796C113.748 81.9796 114.132 81.7581 114.132 81.4849C114.132 81.2117 113.748 80.9902 113.275 80.9902C112.801 80.9902 112.417 81.2117 112.417 81.4849C112.417 81.7581 112.801 81.9796 113.275 81.9796Z" fill="white" stroke="#12183E" stroke-width="0.53" stroke-miterlimit="10"/>
<path d="M51.1136 89.1543V92.668C51.1136 92.9139 51.2755 93.1597 51.6023 93.3486C52.2529 93.7234 53.3052 93.7234 53.9558 93.3486C54.2766 93.1627 54.4385 92.9229 54.4415 92.68V89.1573H51.1136V89.1543Z" fill="white" stroke="#12183E" stroke-width="0.53" stroke-miterlimit="10"/>
<path d="M52.7776 90.1136C53.6965 90.1136 54.4415 89.6841 54.4415 89.1542C54.4415 88.6244 53.6965 88.1948 52.7776 88.1948C51.8586 88.1948 51.1136 88.6244 51.1136 89.1542C51.1136 89.6841 51.8586 90.1136 52.7776 90.1136Z" fill="#12183E" stroke="#12183E" stroke-width="0.53" stroke-miterlimit="10"/>
<path d="M51.9194 87.2866V89.1005C51.9194 89.2264 52.0034 89.3553 52.1713 89.4512C52.5071 89.6461 53.0497 89.6461 53.3855 89.4512C53.5504 89.3553 53.6343 89.2324 53.6373 89.1065V87.2896H51.9194V87.2866Z" fill="white" stroke="#12183E" stroke-width="0.53" stroke-miterlimit="10"/>
<path d="M62.1883 41.5893L71.95 11.1828C72.1 10.7121 72.6486 10.4992 73.0773 10.748L79.4123 14.4057C79.847 14.6575 80.0479 15.1792 79.895 15.6589L70.1362 46.0685C69.9863 46.5391 69.4377 46.752 69.0089 46.5032L62.671 42.8455C62.2363 42.5937 62.0354 42.072 62.1883 41.5923V41.5893Z" fill="#0088FF" stroke="#12183E" stroke-width="0.57" stroke-miterlimit="10"/>
<path d="M52.7769 87.7809C53.2504 87.7809 53.6343 87.5594 53.6343 87.2862C53.6343 87.013 53.2504 86.7915 52.7769 86.7915C52.3033 86.7915 51.9194 87.013 51.9194 87.2862C51.9194 87.5594 52.3033 87.7809 52.7769 87.7809Z" fill="#12183E" stroke="#12183E" stroke-width="0.53" stroke-miterlimit="10"/>
<path d="M76.4623 20.5789L75.9046 22.2818C75.8626 22.4138 75.7097 22.4707 75.5898 22.4018L71.6413 20.1232L71.6054 20.1022L70.8738 19.6795L70.8379 19.6585L70.688 19.5716C70.592 19.5176 70.55 19.4037 70.583 19.2988L71.1197 17.6078C71.1616 17.4759 71.3145 17.416 71.4345 17.4849L76.3603 20.3031C76.4563 20.3571 76.5012 20.471 76.4653 20.5759L76.4623 20.5789Z" fill="#DDDDDD"/>
<path d="M75.386 23.9491L74.8283 25.652C74.7863 25.7839 74.6334 25.8408 74.5135 25.7719L70.565 23.4933L70.5291 23.4724L69.7975 23.0496L69.7616 23.0286L69.6117 22.9417C69.5157 22.8877 69.4737 22.7738 69.5067 22.6689L70.0434 20.978C70.0854 20.846 70.2383 20.7861 70.3582 20.855L75.284 23.6732C75.38 23.7272 75.4249 23.8411 75.389 23.9461L75.386 23.9491Z" fill="#DDDDDD"/>
<path d="M72.3153 33.4051L71.7576 35.108C71.7157 35.2399 71.5628 35.2969 71.4428 35.2279L67.4944 32.9494L67.4584 32.9284L66.7269 32.5057L66.6909 32.4847L66.541 32.3978C66.445 32.3438 66.4031 32.2299 66.436 32.1249L66.9727 30.434C67.0147 30.3021 67.1676 30.2421 67.2875 30.3111L72.2133 33.1293C72.3093 33.1833 72.3543 33.2972 72.3183 33.4021L72.3153 33.4051Z" fill="#DDDDDD"/>
<path d="M71.1313 36.8197L70.5737 38.5226C70.5317 38.6545 70.3788 38.7114 70.2589 38.6425L66.3104 36.364L66.2744 36.343L65.5429 35.9202L65.5069 35.8992L65.357 35.8123C65.2611 35.7583 65.2191 35.6444 65.2521 35.5395L65.7887 33.8486C65.8307 33.7166 65.9836 33.6567 66.1035 33.7256L71.0294 36.5438C71.1253 36.5978 71.1703 36.7117 71.1343 36.8167L71.1313 36.8197Z" fill="#DDDDDD"/>
<path d="M69.7646 41.242L69.207 42.9449C69.165 43.0768 69.0121 43.1338 68.8922 43.0649L64.9437 40.7863L64.9077 40.7653L64.1762 40.3426L64.1402 40.3216L63.9903 40.2347C63.8944 40.1807 63.8524 40.0668 63.8854 39.9618L64.422 38.2709C64.464 38.139 64.6169 38.079 64.7368 38.148L69.6627 40.9662C69.7586 41.0202 69.8036 41.1341 69.7676 41.239L69.7646 41.242Z" fill="#DDDDDD"/>
<path d="M73.6317 29.7352L73.074 31.4381C73.0321 31.57 72.8792 31.627 72.7592 31.558L68.8108 29.2795L68.7748 29.2585L68.0433 28.8358L68.0073 28.8148L67.8574 28.7278C67.7614 28.6739 67.7195 28.5599 67.7525 28.455L68.2891 26.7641C68.3311 26.6322 68.484 26.5722 68.6039 26.6412L73.5298 29.4594C73.6257 29.5133 73.6707 29.6273 73.6347 29.7322L73.6317 29.7352Z" fill="#DDDDDD"/>
<path d="M102.593 43.9853L100.126 51.5225C99.946 52.0711 99.3074 52.317 98.8067 52.0262L79.0674 40.6305C78.5277 40.3187 78.2819 39.6741 78.4737 39.0835L80.9172 31.5313C81.0941 30.9796 81.7357 30.7338 82.2363 31.0246L101.997 42.4353C102.536 42.7471 102.785 43.3947 102.59 43.9853H102.593Z" stroke="#12183E" stroke-width="0.53" stroke-miterlimit="10"/>
<path d="M75.1919 6.77614C75.4396 5.77818 74.959 4.80004 74.1186 4.59143C73.2781 4.38281 72.3959 5.0227 72.1482 6.02066C71.9005 7.01863 72.381 7.99676 73.2215 8.20538C74.062 8.414 74.9441 7.77411 75.1919 6.77614Z" fill="#12183E"/>
<path d="M73.6345 13.4468C73.7709 12.8971 73.5063 12.3585 73.0435 12.2436C72.5806 12.1287 72.0949 12.4811 71.9584 13.0307C71.822 13.5803 72.0866 14.119 72.5494 14.2339C73.0123 14.3488 73.4981 13.9964 73.6345 13.4468Z" fill="#12183E"/>
<path d="M120.691 49.7733C121.747 45.7588 120.025 41.8262 116.845 40.9895C113.665 40.1528 110.231 42.7289 109.174 46.7434C108.118 50.7578 109.84 54.6905 113.02 55.5272C116.201 56.3638 119.635 53.7877 120.691 49.7733Z" stroke="#DDDDDD" stroke-width="5.27" stroke-miterlimit="10"/>
<path d="M114.291 41.0198C115.155 40.786 116.027 40.777 116.852 40.9928C120.012 41.8233 121.747 45.7898 120.698 49.7772" stroke="#0088FF" stroke-width="5.27" stroke-linecap="round" stroke-linejoin="round"/>
<path d="M54.5367 108.462L40.4577 100.334C37.4896 98.6191 32.6747 98.6191 29.7066 100.334L27.1522 101.809C24.1841 103.524 24.1841 106.303 27.1522 108.018L41.2312 116.146C41.2312 116.146 41.2462 116.155 41.2552 116.158L41.2222 118.32C41.2192 118.55 41.7019 118.667 41.9837 118.505L44.2293 117.21C46.8676 117.711 49.8837 117.36 51.9823 116.149L54.5367 114.674C57.5048 112.959 57.5048 110.18 54.5367 108.465V108.462Z" fill="white" stroke="#12183E" stroke-width="0.78" stroke-miterlimit="10"/>
<path d="M49.8177 111.892L37.8883 105.005C37.4866 104.771 37.4866 104.397 37.8883 104.163C38.2901 103.929 38.9437 103.929 39.3454 104.163L51.2748 111.049C51.6765 111.283 51.6765 111.658 51.2748 111.892C50.873 112.126 50.2195 112.126 49.8177 111.892Z" fill="#12183E"/>
<path d="M46.1031 114.035L30.8099 105.206C30.4081 104.972 30.4081 104.597 30.8099 104.363C31.2116 104.13 31.8652 104.13 32.2669 104.363L47.5601 113.193C47.9619 113.427 47.9619 113.801 47.5601 114.035C47.1584 114.269 46.5048 114.269 46.1031 114.035Z" fill="#12183E"/>
<path d="M68.1967 74.2746L58.9716 68.95C58.7347 68.8121 58.7347 68.5902 58.9716 68.4553L62.5543 66.3866C62.7911 66.2487 63.1749 66.2487 63.4117 66.3866L72.6368 71.7112C72.8737 71.8491 72.8737 72.071 72.6368 72.2059L69.0541 74.2746C68.8173 74.4125 68.4335 74.4125 68.1967 74.2746Z" stroke="#12183E" stroke-width="0.53" stroke-miterlimit="10"/>
<path d="M68.2087 73.9749L59.4903 68.9411C59.2894 68.8272 59.2894 68.6383 59.4903 68.5244L62.6772 66.6836C62.8781 66.5697 63.1989 66.5697 63.3998 66.6836L72.1182 71.7174C72.319 71.8313 72.319 72.0202 72.1182 72.1341L68.9312 73.9749C68.7303 74.0888 68.4095 74.0888 68.2087 73.9749Z" fill="#32B232"/>
<path d="M62.956 70.0445C64.2574 70.0445 65.3125 69.4351 65.3125 68.6834C65.3125 67.9317 64.2574 67.3223 62.956 67.3223C61.6545 67.3223 60.5995 67.9317 60.5995 68.6834C60.5995 69.4351 61.6545 70.0445 62.956 70.0445Z" fill="white"/>
<path d="M65.6023 73.2464L64.8372 74.0071L60.2693 71.3699L61.0379 70.6111L65.6023 73.2464ZM60.2298 77.2494L59.4937 72.9598L59.9314 72.1937L61.1224 72.8813C61.407 73.0456 61.6716 73.1357 61.9164 73.1516C62.1649 73.1665 62.3881 73.1164 62.5861 73.0012C62.7878 72.8851 62.9562 72.71 63.0913 72.476C63.294 72.1248 63.3537 71.783 63.2704 71.4503C63.1871 71.1176 62.9183 70.8201 62.4639 70.5578L61.1696 69.8106L62.0522 68.9019L63.078 69.4942C63.6563 69.828 64.0831 70.1938 64.3584 70.5914C64.6373 70.988 64.7774 71.4025 64.7788 71.8347C64.7825 72.2682 64.6591 72.7018 64.4087 73.1355C64.1874 73.5188 63.92 73.8203 63.6065 74.0401C63.2929 74.2599 62.9302 74.3794 62.5183 74.3986C62.1064 74.4178 61.6386 74.3191 61.115 74.1025L61.0658 74.0924L61.701 78.0161L61.6653 78.0781L60.2298 77.2494ZM66.6028 71.5292L65.8229 72.2998L62.127 70.1476L62.899 69.3908L66.6028 71.5292Z" fill="#8028DD"/>
<path d="M62.5237 77.2604L53.2986 71.9358C53.0618 71.7979 53.0618 71.5761 53.2986 71.4412L56.8813 69.3725C57.1182 69.2346 57.5019 69.2346 57.7388 69.3725L66.9639 74.6971C67.2007 74.835 67.2007 75.0568 66.9639 75.1918L63.3812 77.2604C63.1443 77.3983 62.7606 77.3983 62.5237 77.2604Z" stroke="#12183E" stroke-width="0.53" stroke-miterlimit="10"/>
<path d="M62.5357 76.9608L53.8173 71.927C53.6164 71.8131 53.6164 71.6242 53.8173 71.5103L57.0042 69.6694C57.2051 69.5555 57.5259 69.5555 57.7268 69.6694L66.4452 74.7032C66.6461 74.8171 66.6461 75.006 66.4452 75.1199L63.2582 76.9608C63.0574 77.0747 62.7366 77.0747 62.5357 76.9608Z" fill="#EA5050"/>
<path d="M57.283 73.0338C58.5845 73.0338 59.6395 72.4244 59.6395 71.6727C59.6395 70.9209 58.5845 70.3115 57.283 70.3115C55.9816 70.3115 54.9265 70.9209 54.9265 71.6727C54.9265 72.4244 55.9816 73.0338 57.283 73.0338Z" fill="white"/>
<path d="M59.9293 76.2356L59.1642 76.9964L54.5964 74.3591L55.3649 73.6004L59.9293 76.2356ZM54.5569 80.2386L53.8207 75.9491L54.2584 75.1829L55.4494 75.8706C55.734 76.0349 55.9987 76.1249 56.2435 76.1408C56.4919 76.1557 56.7151 76.1056 56.9132 75.9905C57.1148 75.8744 57.2832 75.6993 57.4184 75.4652C57.6211 75.1141 57.6808 74.7722 57.5975 74.4396C57.5141 74.1069 57.2453 73.8094 56.7909 73.5471L55.4966 72.7998L56.3792 71.8912L57.405 72.4834C57.9833 72.8173 58.4101 73.183 58.6854 73.5807C58.9643 73.9773 59.1045 74.3917 59.1058 74.8239C59.1095 75.2575 58.9861 75.6911 58.7357 76.1248C58.5144 76.508 58.247 76.8096 57.9335 77.0294C57.6199 77.2492 57.2572 77.3687 56.8453 77.3879C56.4334 77.4071 55.9656 77.3084 55.442 77.0917L55.3928 77.0816L56.0281 81.0054L55.9923 81.0673L54.5569 80.2386ZM60.9298 74.5185L60.1499 75.289L56.454 73.1369L57.226 72.3801L60.9298 74.5185Z" fill="#8028DD"/>
<path d="M57.721 80.13L48.6758 74.9074C48.466 74.7874 48.466 74.4846 48.6758 74.3617L50.6126 73.2284C50.9694 73.0216 51.4071 73.0186 51.7639 73.2254L60.8451 78.4601C61.0549 78.583 61.0549 78.8858 60.8451 79.0057L58.8663 80.133C58.5125 80.3339 58.0778 80.3339 57.724 80.13H57.721Z" fill="white" stroke="#12183E" stroke-width="0.53" stroke-miterlimit="10"/>
<path d="M130.856 84.7649C129.533 84.7649 128.232 84.1742 127.378 83.0829L121.265 75.258C120.575 74.3735 119.649 73.7439 118.653 73.4801C117.46 73.1653 116.375 73.3722 115.421 74.0917C114.408 74.8592 113.799 76.1304 113.799 77.4915V81.1702C113.799 81.461 113.563 81.6978 113.272 81.6978C112.981 81.6978 112.744 81.461 112.744 81.1702V77.4915C112.744 75.8036 113.506 74.2176 114.783 73.2522C115.988 72.3378 117.418 72.065 118.92 72.4607C120.134 72.7815 121.262 73.543 122.092 74.6074L128.205 82.4324C129.216 83.7275 131.056 84.0903 132.484 83.2808L140.32 78.8407C140.92 78.5019 141.283 77.8843 141.286 77.1947C141.289 76.5052 140.938 75.8846 140.344 75.5368L125.354 66.7464C125.102 66.5995 125.018 66.2757 125.165 66.0239C125.312 65.772 125.636 65.6881 125.888 65.835L140.878 74.6254C141.802 75.168 142.35 76.1304 142.341 77.2007C142.332 78.271 141.772 79.2274 140.839 79.7551L133.002 84.1952C132.331 84.576 131.587 84.7589 130.85 84.7589L130.856 84.7649Z" fill="white" stroke="#12183E" stroke-width="0.53" stroke-miterlimit="10"/>
<path d="M65.0303 23.4272L64.0859 26.3654L62.7518 25.6158C62.437 25.439 62.2871 25.0672 62.392 24.7224L62.8297 23.2474C62.8927 23.0375 63.0336 22.8786 63.2075 22.7857C63.4353 22.6657 63.7172 22.6597 63.96 22.8006L65.0333 23.4242L65.0303 23.4272Z" fill="white" stroke="#12183E" stroke-width="0.53" stroke-miterlimit="10"/>
<path d="M65.237 22.7855L65.0302 23.4271L63.9569 22.8035C63.714 22.6626 63.4472 22.5906 63.2043 22.7885L63.705 22.3748C63.9329 22.1889 64.2597 22.1679 64.5085 22.3268L65.234 22.7885L65.237 22.7855Z" fill="#E4E7EA" stroke="#12183E" stroke-width="0.53" stroke-miterlimit="10"/>
<path d="M62.9469 29.834L62.0025 32.7721L60.6684 32.0226C60.3536 31.8457 60.2037 31.4739 60.3086 31.1292L60.7463 29.6541C60.8093 29.4442 60.9502 29.2853 61.1241 29.1924C61.352 29.0725 61.6338 29.0665 61.8766 29.2074L62.9499 29.831L62.9469 29.834Z" fill="white" stroke="#12183E" stroke-width="0.53" stroke-miterlimit="10"/>
<path d="M63.1535 29.1923L62.9467 29.8338L61.8734 29.2102C61.6305 29.0693 61.3217 29.0603 61.1208 29.1953L61.6215 28.7815C61.8494 28.5956 62.1762 28.5747 62.425 28.7336L63.1506 29.1953L63.1535 29.1923Z" fill="#E4E7EA" stroke="#12183E" stroke-width="0.53" stroke-miterlimit="10"/>
<path d="M61.3368 55.7404L59.1872 56.9756L59.0852 56.9186L55.2027 54.676L55.0978 54.6161L57.2474 53.3809L57.3493 53.4378L61.2319 55.6834L61.3368 55.7404Z" fill="#32B232"/>
<path d="M65.5043 58.1447L63.3547 59.3829L63.2498 59.3229L59.2953 57.0384L59.1874 56.9754L61.337 55.7402L61.4419 55.8002L65.3994 58.0847L65.5043 58.1447Z" fill="#9E9DA0"/>
<path d="M68.391 61.179C68.0942 61.3529 67.7584 61.4398 67.4256 61.4398C67.0929 61.4398 66.7631 61.3529 66.4663 61.182L63.4562 59.4431L63.3542 59.3862L65.5039 58.1479L65.6058 58.2079L68.385 59.8119C68.9097 60.1147 68.9127 60.8732 68.385 61.179H68.391Z" fill="#9E9DA0"/>
<path d="M37.6101 63.3734L45.4651 58.8403C45.8369 58.6274 46.2926 58.6304 46.6583 58.8553C46.9042 59.0052 46.8982 59.362 46.6493 59.5059L38.7884 64.036C38.4226 64.2459 37.9699 64.2429 37.6071 64.027C37.3583 63.8801 37.3613 63.5203 37.6101 63.3764V63.3734Z" fill="#12183E"/>
<path d="M56.3451 75.8667L53.3411 77.5996" stroke="#12183E" stroke-width="0.53" stroke-miterlimit="10"/>
<path d="M38.5666 82.0579L36.378 83.3321L36.0991 83.494C36.0362 83.53 35.9672 83.5569 35.8953 83.5689V83.2571C35.8953 83.1942 35.9192 83.1342 35.9612 83.0892C35.9882 83.0593 36.0182 83.0353 36.0572 83.0233L38.5606 82.0459L38.5696 82.0579H38.5666Z" fill="#E4E7EA" stroke="#12183E" stroke-width="0.53" stroke-miterlimit="10"/>
<path d="M40.5273 80.9183L38.5666 82.0575L38.5576 82.0455L36.7797 81.0322L36.6808 81.0742L38.7824 79.833C38.9833 79.716 39.2292 79.713 39.43 79.833L40.5243 80.4656C40.7042 80.5675 40.7042 80.8253 40.5243 80.9243L40.5273 80.9183Z" fill="#E4E7EA" stroke="#12183E" stroke-width="0.53" stroke-miterlimit="10"/>
<path d="M38.5606 82.0456L36.0572 83.023C36.0212 83.0349 35.9882 83.0589 35.9612 83.0889L34.6001 82.3034L34.3003 82.1295C34.3273 82.0846 34.3663 82.0486 34.4172 82.0276L36.6838 81.0742L36.7827 81.0322L38.5606 82.0456Z" fill="white" stroke="#12183E" stroke-width="0.53" stroke-miterlimit="10"/>
<path d="M35.9612 83.0893C35.9192 83.1342 35.8952 83.1942 35.8952 83.2572V83.569C35.7483 83.5989 35.5894 83.575 35.4545 83.494L34.3932 82.8824C34.3002 82.8284 34.2583 82.7385 34.2613 82.6456V82.2618C34.2613 82.2138 34.2733 82.1689 34.2972 82.1299L34.597 82.3038L35.9582 83.0893H35.9612Z" fill="#E4E7EA" stroke="#12183E" stroke-width="0.53" stroke-miterlimit="10"/>
<path d="M47.0146 86.9837L44.826 88.2579L44.5471 88.4198C44.4842 88.4557 44.4152 88.4827 44.3433 88.4947V88.1829C44.3433 88.1199 44.3672 88.06 44.4092 88.015C44.4362 87.985 44.4662 87.961 44.5052 87.9491L47.0086 86.9717L47.0176 86.9837H47.0146Z" fill="#E4E7EA" stroke="#12183E" stroke-width="0.53" stroke-miterlimit="10"/>
<path d="M48.9752 85.844L47.0145 86.9833L47.0055 86.9713L45.2276 85.958L45.1287 85.9999L47.2303 84.7587C47.4312 84.6418 47.677 84.6388 47.8779 84.7587L48.9722 85.3913C49.1521 85.4933 49.1521 85.7511 48.9722 85.85L48.9752 85.844Z" fill="#E4E7EA" stroke="#12183E" stroke-width="0.53" stroke-miterlimit="10"/>
<path d="M47.0055 86.9684L44.5021 87.9458C44.4661 87.9578 44.4332 87.9818 44.4062 88.0118L43.045 87.2263L42.7452 87.0524C42.7722 87.0074 42.8112 86.9714 42.8622 86.9504L45.1287 85.997L45.2277 85.9551L47.0055 86.9684Z" fill="white" stroke="#12183E" stroke-width="0.53" stroke-miterlimit="10"/>
<path d="M44.4061 88.0151C44.3641 88.06 44.3402 88.12 44.3402 88.1829V88.4947C44.1933 88.5247 44.0344 88.5007 43.8994 88.4198L42.8381 87.8082C42.7452 87.7542 42.7032 87.6643 42.7062 87.5713V87.1876C42.7062 87.1396 42.7182 87.0946 42.7422 87.0557L43.042 87.2296L44.4031 88.0151H44.4061Z" fill="#E4E7EA" stroke="#12183E" stroke-width="0.53" stroke-miterlimit="10"/>
<path d="M41.3515 83.7725L41.3185 83.8025L38.953 85.1816C38.7522 85.2985 38.5063 85.2985 38.3114 85.1816L37.2501 84.57C37.0732 84.471 37.0702 84.2132 37.2501 84.1113L39.5706 82.7441L41.3575 83.7755L41.3515 83.7725Z" fill="#E4E7EA" stroke="#12183E" stroke-width="0.53" stroke-miterlimit="10"/>
<path d="M43.5101 82.3756C43.5101 82.4655 43.4682 82.5524 43.3782 82.6034L41.3605 83.7757L41.3215 83.7996L41.3545 83.7697L43.2403 82.0638L43.4352 81.8869C43.4742 81.8539 43.4951 81.8029 43.4981 81.752L43.5101 82.3726V82.3756Z" fill="#E4E7EA" stroke="#12183E" stroke-width="0.53" stroke-miterlimit="10"/>
<path d="M43.4981 81.7399V81.7549C43.4981 81.8058 43.4741 81.8538 43.4352 81.8898L43.2403 82.0667L41.3545 83.7726L39.5676 82.7412L39.6276 82.7053L39.6396 82.6963L41.9901 80.9604C42.077 80.8974 42.1909 80.8914 42.2839 80.9454L43.4052 81.581C43.4651 81.614 43.5011 81.6799 43.5041 81.7429L43.4981 81.7399Z" fill="white" stroke="#12183E" stroke-width="0.53" stroke-miterlimit="10"/>
<path d="M41.3606 83.7785L41.3516 83.7725" stroke="#8028DD" stroke-width="0.53" stroke-miterlimit="10"/>
<path d="M43.9982 85.3223L43.9653 85.3523L41.5998 86.7314C41.3989 86.8483 41.1531 86.8483 40.9582 86.7314L39.8969 86.1198C39.72 86.0208 39.717 85.763 39.8969 85.6611L42.2174 84.2939L44.0042 85.3253L43.9982 85.3223Z" fill="#E4E7EA" stroke="#12183E" stroke-width="0.53" stroke-miterlimit="10"/>
<path d="M46.1569 83.9254C46.1569 84.0153 46.1149 84.1022 46.0249 84.1532L44.0072 85.3255L43.9683 85.3494L44.0012 85.3195L45.887 83.6136L46.0819 83.4367C46.1209 83.4037 46.1419 83.3527 46.1449 83.3018L46.1569 83.9224V83.9254Z" fill="#E4E7EA" stroke="#12183E" stroke-width="0.53" stroke-miterlimit="10"/>
<path d="M46.1448 83.2897V83.3047C46.1448 83.3557 46.1209 83.4036 46.0819 83.4396L45.887 83.6165L44.0012 85.3224L42.2144 84.291L42.2743 84.2551L42.2863 84.2461L44.6368 82.5102C44.7238 82.4472 44.8377 82.4412 44.9306 82.4952L46.0519 83.1308C46.1119 83.1638 46.1478 83.2297 46.1508 83.2927L46.1448 83.2897Z" fill="white" stroke="#12183E" stroke-width="0.53" stroke-miterlimit="10"/>
<path d="M44.0073 85.3288L43.9983 85.3228" stroke="#8028DD" stroke-width="0.53" stroke-miterlimit="10"/>
<path d="M133.587 113.358C132.504 113.358 131.086 113.025 129.18 112.38C128.751 112.237 128.52 111.772 128.664 111.34C128.808 110.908 129.275 110.681 129.704 110.824C134.348 112.392 134.663 111.661 135.14 110.552C135.455 109.82 135.161 108.96 134.456 108.549L132.085 107.173C131.692 106.945 131.56 106.444 131.788 106.051C132.016 105.659 132.516 105.527 132.909 105.755L135.281 107.131C136.705 107.958 137.292 109.706 136.648 111.199C136.018 112.659 135.152 113.352 133.59 113.352L133.587 113.358Z" fill="#F7F7F7" stroke="#12183E" stroke-width="0.53" stroke-miterlimit="10"/>
<path d="M43.6208 59.9142V60.6877C43.6208 60.8076 43.5638 60.9246 43.4439 60.9905L38.7969 63.6708C38.4461 63.8717 38.0144 63.8687 37.6666 63.6618C37.5527 63.5928 37.4957 63.4759 37.4957 63.359V62.5915C37.4957 62.7084 37.5557 62.8193 37.6666 62.8853C37.7206 62.9183 37.7716 62.9393 37.8285 62.9602C38.1433 63.0862 38.5001 63.0622 38.7969 62.8913L43.294 60.298L43.4439 60.211C43.5638 60.145 43.6208 60.0251 43.6208 59.9082V59.9142Z" fill="#0088FF" stroke="#12183E" stroke-width="0.53" stroke-miterlimit="10"/>
<path d="M43.6208 59.9112C43.6208 60.0311 43.5638 60.1511 43.4439 60.217L43.294 60.304L38.7969 62.8973C38.5001 63.0682 38.1403 63.0922 37.8285 62.9663C37.7745 62.9453 37.7206 62.9213 37.6666 62.8913C37.5557 62.8254 37.4987 62.7114 37.4957 62.5975V62.5885C37.4957 62.4686 37.5527 62.3547 37.6696 62.2857L42.2927 59.5964C42.6494 59.3896 43.0872 59.3926 43.4379 59.6084L43.4529 59.6204C43.5668 59.6894 43.6208 59.8033 43.6208 59.9172V59.9112Z" fill="white" stroke="#12183E" stroke-width="0.53" stroke-miterlimit="10"/>
<path d="M43.8909 66.9803L51.7459 62.4472C52.1176 62.2344 52.5733 62.2374 52.9391 62.4622C53.1849 62.6121 53.1789 62.9689 52.9301 63.1128L45.0691 67.6429C44.7034 67.8528 44.2507 67.8498 43.8879 67.6339C43.6391 67.487 43.6421 67.1273 43.8909 66.9833V66.9803Z" fill="#12183E"/>
<path d="M52.9149 61.8327V62.6062C52.9149 62.7261 52.8579 62.843 52.738 62.909L48.091 65.5893C47.7402 65.7901 47.3085 65.7871 46.9607 65.5803C46.8468 65.5113 46.7898 65.3944 46.7898 65.2775V64.5099C46.7898 64.6269 46.8498 64.7378 46.9607 64.8038C47.0147 64.8367 47.0656 64.8577 47.1226 64.8787C47.4374 65.0046 47.7942 64.9806 48.091 64.8098L52.5881 62.2164L52.738 62.1295C52.8579 62.0635 52.9149 61.9436 52.9149 61.8267V61.8327Z" fill="#0088FF" stroke="#12183E" stroke-width="0.53" stroke-miterlimit="10"/>
<path d="M52.9149 61.8326C52.9149 61.9525 52.8579 62.0725 52.738 62.1384L52.5881 62.2254L48.091 64.8187C47.7942 64.9896 47.4344 65.0136 47.1226 64.8877C47.0686 64.8667 47.0147 64.8427 46.9607 64.8127C46.8498 64.7467 46.7928 64.6328 46.7898 64.5189V64.5099C46.7898 64.39 46.8468 64.276 46.9637 64.2071L51.5867 61.5178C51.9435 61.3109 52.3812 61.3139 52.732 61.5298L52.747 61.5418C52.8609 61.6108 52.9149 61.7247 52.9149 61.8386V61.8326Z" fill="white" stroke="#12183E" stroke-width="0.53" stroke-miterlimit="10"/>
<path d="M109.56 33.1647L88.0042 20.8366C87.4766 20.5338 86.805 20.7976 86.6221 21.3763L84.2746 28.7755C84.1307 29.2312 84.3226 29.7259 84.7363 29.9658L85.3989 30.3465L85.5578 30.4365L88.7568 32.2833L88.9216 32.3762L106.203 42.3538C106.727 42.6567 107.396 42.3988 107.585 41.8262L110.025 34.367C110.175 33.9083 109.983 33.4076 109.563 33.1677L109.56 33.1647Z" fill="#DDDDDD"/>
<path d="M108.926 31.699L106.485 39.1582C106.296 39.7339 105.628 39.9887 105.103 39.6859L87.822 29.7083L87.6571 29.6153L84.4582 27.7685L84.2993 27.6786L83.6367 27.2978C83.223 27.058 83.0311 26.5633 83.175 26.1076L85.5225 18.7083C85.7054 18.1297 86.377 17.8658 86.9046 18.1686L108.461 30.4968C108.881 30.7366 109.072 31.2373 108.923 31.696L108.926 31.699Z" fill="#0088FF" stroke="#12183E" stroke-width="0.57" stroke-miterlimit="10"/>
<path d="M88.0378 27.8108C88.0378 28.0087 88.0108 28.2095 87.9479 28.4044L87.5821 29.5707L84.3832 27.7239L84.2242 27.6339L84.3891 27.1152C84.7399 26.0089 86.0261 25.5053 87.0335 26.0839C87.666 26.4467 88.0348 27.1122 88.0348 27.8138L88.0378 27.8108Z" fill="white" stroke="#12183E" stroke-width="0.57" stroke-miterlimit="10"/>
<path d="M87.5432 25.6941C88.2768 25.6941 88.8714 25.0351 88.8714 24.2221C88.8714 23.4091 88.2768 22.75 87.5432 22.75C86.8097 22.75 86.2151 23.4091 86.2151 24.2221C86.2151 25.0351 86.8097 25.6941 87.5432 25.6941Z" fill="white" stroke="#12183E" stroke-width="0.57" stroke-miterlimit="10"/>
<path d="M102.024 29.7471L101.466 31.447C101.424 31.5789 101.271 31.6358 101.151 31.5669L97.215 29.2943L97.179 29.2734L96.4505 28.8536L96.4145 28.8326L96.2646 28.7457C96.1717 28.6917 96.1267 28.5778 96.1597 28.4759L96.6934 26.7909C96.7353 26.659 96.8882 26.5991 97.0081 26.668L101.919 29.4772C102.015 29.5312 102.06 29.6451 102.024 29.7501V29.7471Z" fill="white"/>
<path d="M100.669 32.727L100.111 34.4269C100.069 34.5589 99.9162 34.6158 99.7963 34.5469L95.8598 32.2743L95.8238 32.2533L95.0953 31.8336L95.0593 31.8126L94.9094 31.7257C94.8165 31.6717 94.7715 31.5578 94.8045 31.4558L95.3381 29.7709C95.3801 29.639 95.533 29.579 95.6529 29.648L100.564 32.4572C100.66 32.5112 100.705 32.6251 100.669 32.73V32.727Z" fill="white"/>
<path d="M61.4419 55.8005L59.2953 57.0387L59.1874 56.9758L59.0854 56.9188L61.2321 55.6836L61.337 55.7406L61.4419 55.8005Z" fill="#12183E"/>
<path d="M65.6084 58.2049L63.4558 59.4401L63.3538 59.3831L63.2489 59.3232L65.3985 58.085L65.5035 58.1449L65.6084 58.2049Z" fill="#12183E"/>
<path d="M57.2472 53.381L55.1006 54.6162L54.9987 54.5563L52.3544 53.0303C51.8477 52.7364 51.8477 52.0079 52.3544 51.7141C52.6662 51.5372 53.014 51.4473 53.3587 51.4473C53.7035 51.4473 54.0573 51.5372 54.3721 51.7201L57.1453 53.3211L57.2502 53.381H57.2472Z" fill="#32B232"/>
<path d="M57.3495 53.4378L55.2028 54.676L55.0979 54.616L54.996 54.5561L57.1396 53.3179L57.2475 53.3808L57.3495 53.4378Z" fill="#12183E"/>
<path d="M31.3133 75.2254C35.2011 75.2254 38.3528 73.4066 38.3528 71.163C38.3528 68.9194 35.2011 67.1006 31.3133 67.1006C27.4255 67.1006 24.2738 68.9194 24.2738 71.163C24.2738 73.4066 27.4255 75.2254 31.3133 75.2254Z" fill="white" stroke="#12183E" stroke-width="0.53" stroke-miterlimit="10"/>
<path d="M31.1184 76.5563C35.8093 76.5563 39.612 74.3603 39.612 71.6514C39.612 68.9426 35.8093 66.7466 31.1184 66.7466C26.4276 66.7466 22.6249 68.9426 22.6249 71.6514C22.6249 74.3603 26.4276 76.5563 31.1184 76.5563Z" stroke="#12183E" stroke-width="0.53" stroke-miterlimit="10"/>
<path d="M31.314 74.3556C34.5825 74.3556 37.2322 72.8254 37.2322 70.9378C37.2322 69.0502 34.5825 67.52 31.314 67.52C28.0454 67.52 25.3958 69.0502 25.3958 70.9378C25.3958 72.8254 28.0454 74.3556 31.314 74.3556Z" fill="#12183E"/>
<path d="M36.9348 66.2817V70.4131C36.9437 71.2526 36.3981 72.089 35.2918 72.7306C34.4374 73.2223 33.382 73.5251 32.2757 73.633C32.1408 73.645 32.0029 73.657 31.868 73.666C31.6611 73.678 31.4513 73.684 31.2414 73.684C29.8263 73.672 28.4202 73.3542 27.3379 72.7336C26.2376 72.098 25.6949 71.2675 25.6949 70.4371V66.2877H36.9378L36.9348 66.2817Z" fill="#0088FF" stroke="#12183E" stroke-width="0.53" stroke-miterlimit="10"/>
<path d="M36.9348 66.2817V70.4131C36.9438 71.2526 36.3981 72.089 35.2918 72.7306C34.4374 73.2223 33.382 73.5251 32.2758 73.633V68.5453L34.9201 66.2847H36.9348V66.2817Z" fill="#0D6ECE"/>
<path d="M31.865 69.0698V73.6599C31.6581 73.6719 31.4483 73.6779 31.2384 73.6779V69.0698H31.865Z" fill="#0D6ECE"/>
<path d="M31.3134 69.508C34.418 69.508 36.9348 68.0543 36.9348 66.2611C36.9348 64.4679 34.418 63.0142 31.3134 63.0142C28.2088 63.0142 25.692 64.4679 25.692 66.2611C25.692 68.0543 28.2088 69.508 31.3134 69.508Z" fill="white" stroke="#12183E" stroke-width="0.53" stroke-miterlimit="10"/>
<path d="M35.073 65.5951C35.2965 65.5951 35.4777 65.481 35.4777 65.3403C35.4777 65.1995 35.2965 65.0854 35.073 65.0854C34.8494 65.0854 34.6682 65.1995 34.6682 65.3403C34.6682 65.481 34.8494 65.5951 35.073 65.5951Z" fill="#12183E"/>
<path d="M36.9348 66.3418V70.4132C36.9437 71.2527 36.3981 72.0891 35.2918 72.7307C34.4374 73.2224 33.382 73.5252 32.2757 73.6331C32.1408 73.6451 32.0029 73.6571 31.868 73.6661C31.6611 73.6781 31.4513 73.6841 31.2414 73.6841C29.8263 73.6721 28.4202 73.3543 27.3379 72.7337C26.2376 72.0981 25.6949 71.2676 25.6949 70.4372V66.3478C25.7279 67.1513 26.2736 67.9518 27.3379 68.5634C29.5355 69.8316 33.0942 69.8316 35.2918 68.5634C36.3561 67.9518 36.9048 67.1513 36.9348 66.3478V66.3418Z" stroke="#12183E" stroke-width="0.53" stroke-miterlimit="10"/>
<path d="M34.6445 95.8847C31.8713 95.8847 29.9915 94.8233 29.8865 94.7634L3.38948 79.4612C1.89344 78.5977 0.997009 77.0477 1.00001 75.3178C1.00001 73.5879 1.89344 72.0409 3.39248 71.1775L54.3269 41.7873C55.9429 40.8639 57.0701 39.3978 57.6787 37.4221C58.2664 35.5153 58.2424 33.4436 57.6098 31.4259L54.9625 22.9863C54.7046 22.1618 54.9745 21.2834 55.652 20.7497C56.3296 20.2131 57.247 20.1531 57.9875 20.5908L63.2971 23.7358C63.549 23.8827 63.6299 24.2065 63.483 24.4584C63.3361 24.7102 63.0123 24.7912 62.7605 24.6442L57.4509 21.4993C57.0102 21.2384 56.5695 21.3673 56.3056 21.5772C56.0418 21.7871 55.8139 22.1828 55.9698 22.6745L58.6171 31.1141C59.3127 33.3357 59.3367 35.6232 58.6861 37.7369C57.9965 39.9764 56.7044 41.6464 54.8516 42.7047L3.91714 72.0919C2.75089 72.7665 2.05233 73.9717 2.05233 75.3208C2.05233 76.67 2.74789 77.8752 3.91714 78.5498L30.4112 93.852C30.4412 93.87 33.5832 95.6208 37.5976 94.3826C41.5281 93.1684 44.9609 89.5977 47.7971 83.7754C48.4566 82.1325 49.0563 80.7473 49.5839 79.656C49.9737 78.8496 50.8221 78.4358 51.6976 78.6277C52.573 78.8196 53.1726 79.5511 53.1876 80.4445L53.3075 86.7795C53.3135 87.0703 53.0827 87.3102 52.7919 87.3162H52.7829C52.4951 87.3162 52.2612 87.0853 52.2552 86.8005L52.1353 80.4655C52.1263 79.9739 51.7875 79.725 51.4727 79.656C51.1579 79.5871 50.7472 79.671 50.5343 80.1118C50.0156 81.1851 49.422 82.5522 48.7714 84.1802L48.7565 84.2161C45.7794 90.3352 42.1217 94.0948 37.8884 95.393C36.7222 95.7497 35.6309 95.8817 34.6475 95.8847H34.6445Z" fill="white" stroke="#12183E" stroke-width="0.53" stroke-miterlimit="10"/>
<path d="M100.674 93.2105C102.734 93.2105 104.404 92.2468 104.404 91.0579C104.404 89.869 102.734 88.9053 100.674 88.9053C98.6143 88.9053 96.9445 89.869 96.9445 91.0579C96.9445 92.2468 98.6143 93.2105 100.674 93.2105Z" stroke="#12183E" stroke-width="0.35" stroke-miterlimit="10"/>
<path d="M100.674 92.9139C102.563 92.9139 104.095 92.0293 104.095 90.9381C104.095 89.847 102.563 88.9624 100.674 88.9624C98.7848 88.9624 97.2533 89.847 97.2533 90.9381C97.2533 92.0293 98.7848 92.9139 100.674 92.9139Z" fill="#12183E"/>
<path d="M102.782 86.2549V90.722C102.776 91.0278 102.572 91.3366 102.164 91.5705C101.867 91.7414 101.502 91.8523 101.118 91.9003C101.082 91.9003 101.043 91.9093 101.004 91.9123C100.989 91.9123 100.974 91.9123 100.959 91.9183C100.902 91.9243 100.839 91.9272 100.782 91.9272C100.746 91.9272 100.707 91.9272 100.671 91.9272C100.131 91.9272 99.5918 91.8073 99.1811 91.5705C98.7703 91.3336 98.5635 91.0188 98.5635 90.71V86.2579H102.779L102.782 86.2549Z" fill="white" stroke="#12183E" stroke-width="0.53" stroke-miterlimit="10"/>
<path d="M102.782 86.2549V90.722C102.776 91.0278 102.572 91.3366 102.164 91.5705C101.867 91.7414 101.502 91.8523 101.118 91.9003V86.2549H102.782Z" fill="#0088FF"/>
<path d="M100.962 86.9443V91.9182C100.905 91.9241 100.842 91.9271 100.785 91.9271C100.749 91.9271 100.71 91.9271 100.674 91.9271V86.9443H100.962Z" fill="#0088FF"/>
<path d="M100.674 87.472C101.838 87.472 102.782 86.9271 102.782 86.2548C102.782 85.5826 101.838 85.0376 100.674 85.0376C99.51 85.0376 98.5664 85.5826 98.5664 86.2548C98.5664 86.9271 99.51 87.472 100.674 87.472Z" fill="#12183E" stroke="#12183E" stroke-width="0.53" stroke-miterlimit="10"/>
<path d="M102.782 86.2549V90.722C102.776 91.0278 102.572 91.3366 102.164 91.5705C101.867 91.7414 101.502 91.8523 101.118 91.9003C101.082 91.9003 101.043 91.9093 101.004 91.9123C100.989 91.9123 100.974 91.9123 100.959 91.9183C100.902 91.9243 100.839 91.9272 100.782 91.9272C100.746 91.9272 100.707 91.9272 100.671 91.9272C100.131 91.9272 99.5918 91.8073 99.1811 91.5705C98.7703 91.3336 98.5635 91.0188 98.5635 90.71V86.2579H102.779L102.782 86.2549Z" stroke="#12183E" stroke-width="0.53" stroke-miterlimit="10"/>
<path d="M93.4307 89.1241C95.4905 89.1241 97.1603 88.1603 97.1603 86.9715C97.1603 85.7826 95.4905 84.8188 93.4307 84.8188C91.3709 84.8188 89.701 85.7826 89.701 86.9715C89.701 88.1603 91.3709 89.1241 93.4307 89.1241Z" fill="white" stroke="#DDDDDD" stroke-width="0.53" stroke-miterlimit="10"/>
<path d="M93.5236 88.4196C95.032 88.4196 96.2549 87.7136 96.2549 86.8426C96.2549 85.9717 95.032 85.2656 93.5236 85.2656C92.0152 85.2656 90.7924 85.9717 90.7924 86.8426C90.7924 87.7136 92.0152 88.4196 93.5236 88.4196Z" stroke="#12183E" stroke-width="0.38" stroke-miterlimit="10"/>
<path d="M95.6313 82.1685V86.6356C95.6253 86.9414 95.4214 87.2502 95.0137 87.4841C94.7169 87.655 94.3511 87.7659 93.9673 87.8138C93.9313 87.8138 93.8924 87.8228 93.8534 87.8258C93.8384 87.8258 93.8234 87.8258 93.8084 87.8318C93.7515 87.8378 93.6885 87.8408 93.6315 87.8408C93.5956 87.8408 93.5566 87.8408 93.5206 87.8408C92.981 87.8408 92.4413 87.7209 92.0306 87.4841C91.6198 87.2472 91.413 86.9324 91.413 86.6236V82.1715H95.6283L95.6313 82.1685Z" fill="white" stroke="#12183E" stroke-width="0.53" stroke-miterlimit="10"/>
<path d="M95.6312 82.1685V86.6356C95.6252 86.9414 95.4214 87.2502 95.0136 87.4841C94.7168 87.655 94.351 87.7659 93.9673 87.8138V82.1685H95.6312Z" fill="#0088FF"/>
<path d="M93.8114 82.8579V87.8317C93.7544 87.8377 93.6915 87.8407 93.6345 87.8407C93.5985 87.8407 93.5595 87.8407 93.5236 87.8407V82.8579H93.8114Z" fill="#0088FF"/>
<path d="M93.5237 83.3885C94.6877 83.3885 95.6313 82.8436 95.6313 82.1713C95.6313 81.4991 94.6877 80.9541 93.5237 80.9541C92.3596 80.9541 91.416 81.4991 91.416 82.1713C91.416 82.8436 92.3596 83.3885 93.5237 83.3885Z" fill="#12183E" stroke="#12183E" stroke-width="0.53" stroke-miterlimit="10"/>
<path d="M95.6313 82.1685V86.6356C95.6253 86.9414 95.4214 87.2502 95.0137 87.4841C94.7169 87.6549 94.3511 87.7659 93.9673 87.8138C93.9313 87.8138 93.8924 87.8228 93.8534 87.8258C93.8384 87.8258 93.8234 87.8258 93.8084 87.8318C93.7515 87.8378 93.6885 87.8408 93.6315 87.8408C93.5956 87.8408 93.5566 87.8408 93.5206 87.8408C92.981 87.8408 92.4413 87.7209 92.0306 87.4841C91.6198 87.2472 91.413 86.9324 91.413 86.6236V82.1715H95.6283L95.6313 82.1685Z" stroke="#12183E" stroke-width="0.53" stroke-miterlimit="10"/>
<path d="M86.37 84.8756C88.4298 84.8756 90.0996 83.9118 90.0996 82.7229C90.0996 81.5341 88.4298 80.5703 86.37 80.5703C84.3102 80.5703 82.6404 81.5341 82.6404 82.7229C82.6404 83.9118 84.3102 84.8756 86.37 84.8756Z" stroke="#12183E" stroke-width="0.35" stroke-miterlimit="10"/>
<path d="M86.3699 84.5789C88.2592 84.5789 89.7907 83.6944 89.7907 82.6032C89.7907 81.512 88.2592 80.6274 86.3699 80.6274C84.4806 80.6274 82.9491 81.512 82.9491 82.6032C82.9491 83.6944 84.4806 84.5789 86.3699 84.5789Z" fill="#12183E"/>
<path d="M88.4805 77.9204V82.3876C88.4745 82.6934 88.2706 83.0022 87.8629 83.236C87.5661 83.4069 87.2003 83.5178 86.8166 83.5658C86.7806 83.5658 86.7416 83.5748 86.7027 83.5778C86.6877 83.5778 86.6727 83.5778 86.6577 83.5838C86.6007 83.5898 86.5378 83.5928 86.4808 83.5928C86.4448 83.5928 86.4058 83.5928 86.3699 83.5928C85.8302 83.5928 85.2905 83.4729 84.8798 83.236C84.4691 82.9992 84.2622 82.6844 84.2622 82.3756V77.9234H88.4775L88.4805 77.9204Z" fill="white" stroke="#12183E" stroke-width="0.53" stroke-miterlimit="10"/>
<path d="M88.4806 77.9204V82.3876C88.4746 82.6934 88.2707 83.0022 87.863 83.236C87.5662 83.4069 87.2004 83.5178 86.8167 83.5658V77.9204H88.4806Z" fill="#0088FF"/>
<path d="M86.6578 78.6099V83.5837C86.6009 83.5897 86.5379 83.5927 86.4809 83.5927C86.445 83.5927 86.406 83.5927 86.37 83.5927V78.6099H86.6578Z" fill="#0088FF"/>
<path d="M86.3699 79.1405C87.5339 79.1405 88.4775 78.5955 88.4775 77.9233C88.4775 77.251 87.5339 76.7061 86.3699 76.7061C85.2058 76.7061 84.2622 77.251 84.2622 77.9233C84.2622 78.5955 85.2058 79.1405 86.3699 79.1405Z" fill="#12183E" stroke="#12183E" stroke-width="0.53" stroke-miterlimit="10"/>
<path d="M88.4805 77.9204V82.3876C88.4745 82.6934 88.2706 83.0022 87.8629 83.236C87.5661 83.4069 87.2003 83.5178 86.8166 83.5658C86.7806 83.5658 86.7416 83.5748 86.7026 83.5778C86.6877 83.5778 86.6727 83.5778 86.6577 83.5838C86.6007 83.5898 86.5378 83.5928 86.4808 83.5928C86.4448 83.5928 86.4058 83.5928 86.3699 83.5928C85.8302 83.5928 85.2905 83.4729 84.8798 83.236C84.4691 82.9992 84.2622 82.6844 84.2622 82.3756V77.9234H88.4775L88.4805 77.9204Z" stroke="#12183E" stroke-width="0.53" stroke-miterlimit="10"/>
<path d="M136.039 38.4536C136.048 38.8284 135.997 39.2091 135.886 39.5839L134.282 40.3094L134.525 39.5509C134.567 39.422 134.6 39.2931 134.621 39.1642L136.042 38.4566L136.039 38.4536Z" fill="#0088FF"/>
<path d="M98.2972 60.5975L75.8626 47.8047C75.194 47.424 74.8912 46.6175 75.143 45.889L75.6287 44.4829C75.8266 43.9102 76.4982 43.6554 77.0258 43.9582L99.4395 56.76C100.102 57.1378 100.405 57.9322 100.165 58.6578L99.6973 60.0639C99.5055 60.6455 98.8279 60.9033 98.2972 60.6005V60.5975Z" fill="white" stroke="#DDDDDD" stroke-width="0.53" stroke-miterlimit="10"/>
<path d="M95.6435 66.4647L73.2089 53.6719C72.5403 53.2912 72.2375 52.4847 72.4894 51.7561L72.975 50.35C73.1729 49.7774 73.8445 49.5226 74.3722 49.8254L96.7858 62.6272C97.4484 63.0049 97.7512 63.7994 97.5113 64.525L97.0436 65.9311C96.8518 66.5127 96.1742 66.7705 95.6435 66.4677V66.4647Z" fill="white" stroke="#DDDDDD" stroke-width="0.53" stroke-miterlimit="10"/>
<path d="M110.582 66.5525C111.134 64.4532 110.233 62.3966 108.569 61.9589C106.905 61.5211 105.109 62.8681 104.557 64.9674C104.004 67.0667 104.905 69.1234 106.569 69.5611C108.233 69.9988 110.029 68.6519 110.582 66.5525Z" fill="white" stroke="#DDDDDD" stroke-width="0.53" stroke-miterlimit="10"/>
<path d="M107.642 67.7869L109.234 65.0376C109.48 64.6119 109.336 64.0693 108.913 63.8204L108.32 63.4726C108.098 63.3437 107.813 63.4457 107.729 63.6885L107.612 64.0153C107.561 64.1622 107.6 64.3241 107.711 64.429C107.939 64.6449 107.999 64.9837 107.858 65.2625L107.276 66.4138C107.16 66.6446 106.899 66.7615 106.65 66.6926L106.404 66.6236C106.269 66.5876 106.128 66.6446 106.062 66.7675L105.837 67.1693C105.756 67.3132 105.807 67.4961 105.948 67.58L106.731 68.0327C107.052 68.2156 107.459 68.1077 107.642 67.7899V67.7869Z" fill="#0088FF"/>
<path d="M42.7303 60.2465C42.9538 60.2465 43.135 60.1324 43.135 59.9917C43.135 59.8509 42.9538 59.7368 42.7303 59.7368C42.5068 59.7368 42.3256 59.8509 42.3256 59.9917C42.3256 60.1324 42.5068 60.2465 42.7303 60.2465Z" fill="#12183E"/>
<path d="M52.1086 62.1205C52.3321 62.1205 52.5133 62.0064 52.5133 61.8657C52.5133 61.7249 52.3321 61.6108 52.1086 61.6108C51.8851 61.6108 51.7039 61.7249 51.7039 61.8657C51.7039 62.0064 51.8851 62.1205 52.1086 62.1205Z" fill="#12183E"/>
<path d="M77.5753 46.2544C77.7117 45.7048 77.4471 45.1661 76.9843 45.0512C76.5214 44.9363 76.0357 45.2887 75.8992 45.8384C75.7628 46.388 76.0274 46.9266 76.4902 47.0415C76.9531 47.1564 77.4388 46.804 77.5753 46.2544Z" fill="#0088FF" stroke="#12183E" stroke-width="0.57" stroke-miterlimit="10"/>
<path d="M75.1546 52.227C75.291 51.6774 75.0264 51.1388 74.5636 51.0239C74.1008 50.909 73.615 51.2614 73.4786 51.811C73.3422 52.3606 73.6068 52.8993 74.0696 53.0142C74.5324 53.129 75.0182 52.7766 75.1546 52.227Z" fill="#0088FF" stroke="#12183E" stroke-width="0.57" stroke-miterlimit="10"/>
</svg>
