<svg width="84" height="84" viewBox="0 0 84 84" fill="none" xmlns="http://www.w3.org/2000/svg">
<path d="M41.9602 74C59.6334 74 73.9602 59.6731 73.9602 42C73.9602 24.3269 59.6334 10 41.9602 10C24.2871 10 9.96021 24.3269 9.96021 42C9.96021 59.6731 24.2871 74 41.9602 74Z" fill="url(#paint0_radial_372_2480)"/>
<path opacity="0.5" d="M41.9602 74C59.6334 74 73.9602 59.6731 73.9602 42C73.9602 24.3269 59.6334 10 41.9602 10C24.2871 10 9.96021 24.3269 9.96021 42C9.96021 59.6731 24.2871 74 41.9602 74Z" fill="url(#paint1_radial_372_2480)"/>
<path d="M64.0203 52.6402C64.0404 52.4602 64.0603 52.2802 64.0804 52.1202C64.0404 51.5402 63.6804 51.0002 63.1003 50.8002C62.8003 50.6802 62.4803 50.6802 62.1604 50.7602C55.6203 52.5802 48.8203 53.5202 41.9604 53.5202C35.1003 53.5202 28.3004 52.6002 21.7604 50.7602C21.4604 50.6802 21.1204 50.6802 20.8203 50.8002C20.2603 51.0202 19.9004 51.5202 19.8403 52.1002C19.8604 52.3002 19.8803 52.5002 19.9203 52.7202L20.2804 54.2202C20.3603 54.5001 20.4604 54.8002 20.5804 55.1202C22.8203 60.3602 28.6603 69.5801 41.9803 69.5801C55.2804 69.5801 61.1203 60.3401 63.3804 55.1002C63.4803 54.8202 63.5804 54.5602 63.6403 54.3002L64.0203 52.6402Z" fill="url(#paint2_radial_372_2480)"/>
<path d="M41.96 68.12C47.12 68.12 51.08 66.64 54.1 64.54C50.78 63 46.78 62 41.96 62C37.14 62 33.12 63 29.8 64.56C32.84 66.66 36.8 68.12 41.96 68.12Z" fill="url(#paint3_radial_372_2480)"/>
<path d="M63.6403 54.2402L64.0003 52.7002C64.0402 52.4802 64.0603 52.2802 64.0603 52.1002C64.0203 51.5202 63.6403 51.0202 63.0803 50.8002C62.7802 50.6802 62.4603 50.6802 62.1403 50.7602C55.6003 52.5802 48.8003 53.5202 41.9402 53.5202C35.0803 53.5202 28.2803 52.6002 21.7402 50.7602C21.4403 50.6802 21.1003 50.6802 20.8003 50.8002C20.2403 51.0202 19.8803 51.5202 19.8203 52.1002C19.8403 52.2802 19.8603 52.5002 19.8803 52.7202L20.2403 54.2402C20.3203 54.5202 20.4203 54.8202 20.5403 55.1202C21.4403 57.2402 22.9403 60.0003 25.2603 62.5402C23.0802 59.9402 25.7603 58.5202 30.5803 59.1002C35.3803 59.6802 41.9402 59.7002 41.9402 59.7002C41.9402 59.7002 48.5003 59.6802 53.3003 59.1002C58.1003 58.5202 60.8002 59.9603 58.6202 62.5402C60.9603 60.0003 62.4402 57.2402 63.3403 55.1202C63.4603 54.8002 63.5603 54.5202 63.6403 54.2402Z" fill="url(#paint4_linear_372_2480)"/>
<path d="M41.9601 54.9799C35.04 54.9799 28.2001 54.0599 21.5801 52.22L21.6601 53.1199C21.8201 54.8399 23.0801 56.26 24.7601 56.6399C30.38 57.8799 36.1401 58.4999 41.9401 58.4999C48.2001 58.4999 54.4 57.7799 60.44 56.34C61.3401 56.1199 62 55.3599 62.1001 54.4399L62.3201 52.2399C55.7201 54.0599 48.8801 54.9799 41.9601 54.9799Z" fill="url(#paint5_radial_372_2480)"/>
<path d="M41.9602 74C59.6334 74 73.9602 59.6731 73.9602 42C73.9602 24.3269 59.6334 10 41.9602 10C24.2871 10 9.96021 24.3269 9.96021 42C9.96021 59.6731 24.2871 74 41.9602 74Z" fill="url(#paint6_radial_372_2480)"/>
<path d="M41.9602 74C59.6334 74 73.9602 59.6731 73.9602 42C73.9602 24.3269 59.6334 10 41.9602 10C24.2871 10 9.96021 24.3269 9.96021 42C9.96021 59.6731 24.2871 74 41.9602 74Z" fill="url(#paint7_radial_372_2480)"/>
<path opacity="0.24" d="M67.8401 38.2598C68.1401 38.2198 68.4201 38.1998 68.7 38.1798C68.7 38.1998 68.6801 38.2398 68.6801 38.2799L68.6001 49.0798C68.6001 49.9598 67.6 50.4398 66.9001 49.8998L58.3801 43.2798C58.2601 43.1798 58.1001 43.1598 57.9601 43.1998L47.66 46.4598C46.82 46.7199 46.06 45.9199 46.36 45.0998L49.92 35.2398C50.0401 34.9199 49.9801 34.5598 49.7801 34.2799L43.6801 25.7599C43.4801 25.4798 43.4401 25.1398 43.5201 24.8399L44.5401 24.9398C54.0601 25.0598 54.3201 39.9198 67.8401 38.2598Z" fill="url(#paint8_radial_372_2480)"/>
<path d="M62.1202 15.52L55.7002 24.36C55.6202 24.48 55.4601 24.56 55.3202 24.54L44.4002 24.26C43.5202 24.24 43.0002 25.24 43.5202 25.94L49.7602 34.52C49.9601 34.8 50.0202 35.16 49.9002 35.5L46.3602 45.5C46.0602 46.34 46.8602 47.14 47.7002 46.86L58.0802 43.48C58.2202 43.44 58.3802 43.46 58.5002 43.56L67.1602 50.2C67.8602 50.74 68.8602 50.24 68.8602 49.36V38.44C68.8602 38.28 68.9401 38.14 69.0602 38.06L78.0602 31.88C78.7802 31.38 78.6202 30.2601 77.7802 30L67.4002 26.62C67.2601 26.58 67.1402 26.46 67.1002 26.32L64.0002 15.84C63.7602 15 62.6401 14.8 62.1202 15.52Z" fill="url(#paint9_radial_372_2480)"/>
<path d="M71.9201 34.2002C74.2601 32.5401 77.4802 30.7602 77.0401 29.7601L77.8001 30.0002C78.6401 30.2802 78.8001 31.3802 78.0801 31.8802L69.0802 38.0602C68.9601 38.1402 68.8801 38.2802 68.8801 38.4402C68.9201 36.5202 69.5802 35.8402 71.9201 34.2002Z" fill="url(#paint10_radial_372_2480)"/>
<path d="M64.0002 15.84L67.1002 26.3C67.1402 26.44 67.2601 26.56 67.4002 26.6L77.8001 29.98C78.6401 30.2601 78.8002 31.36 78.0802 31.86L69.3402 37.88C69.0602 38.08 68.8802 38.4 68.8802 38.76V49.36C68.8802 50.24 67.8802 50.74 67.1801 50.2L58.5202 43.56C58.4001 43.46 58.2402 43.44 58.1001 43.48L47.7202 46.86C46.8802 47.14 46.1002 46.32 46.3802 45.5L50.0001 35.2C50.0602 35.06 50.0202 34.9 49.9402 34.78L43.5202 25.94C43.0002 25.2201 43.5202 24.24 44.4002 24.26L55.3202 24.54C55.4802 24.54 55.6202 24.48 55.7002 24.36L62.1202 15.52C62.6401 14.8 63.7602 15 64.0002 15.84Z" fill="url(#paint11_radial_372_2480)"/>
<path d="M64.0002 15.84L67.1002 26.3C67.1402 26.44 67.2601 26.56 67.4002 26.6L77.8001 29.98C78.6401 30.2601 78.8002 31.36 78.0802 31.86L69.3402 37.88C69.0602 38.08 68.8802 38.4 68.8802 38.76V49.36C68.8802 50.24 67.8802 50.74 67.1801 50.2L58.5202 43.56C58.4001 43.46 58.2402 43.44 58.1001 43.48L47.7202 46.86C46.8802 47.14 46.1002 46.32 46.3802 45.5L50.0001 35.2C50.0602 35.06 50.0202 34.9 49.9402 34.78L43.5202 25.94C43.0002 25.2201 43.5202 24.24 44.4002 24.26L55.3202 24.54C55.4802 24.54 55.6202 24.48 55.7002 24.36L62.1202 15.52C62.6401 14.8 63.7602 15 64.0002 15.84Z" fill="url(#paint12_radial_372_2480)"/>
<path opacity="0.24" d="M64.0002 15.84L67.1002 26.3C67.1402 26.44 67.2601 26.56 67.4002 26.6L77.8001 29.98C78.6401 30.2601 78.8002 31.36 78.0802 31.86L69.3402 37.88C69.0602 38.08 68.8802 38.4 68.8802 38.76V49.36C68.8802 50.24 67.8802 50.74 67.1801 50.2L58.5202 43.56C58.4001 43.46 58.2402 43.44 58.1001 43.48L47.7202 46.86C46.8802 47.14 46.1002 46.32 46.3802 45.5L50.0001 35.2C50.0602 35.06 50.0202 34.9 49.9402 34.78L43.5202 25.94C43.0002 25.2201 43.5202 24.24 44.4002 24.26L55.3202 24.54C55.4802 24.54 55.6202 24.48 55.7002 24.36L62.1202 15.52C62.6401 14.8 63.7602 15 64.0002 15.84Z" fill="url(#paint13_radial_372_2480)"/>
<path opacity="0.24" d="M64.0002 15.84L67.1002 26.3C67.1402 26.44 67.2601 26.56 67.4002 26.6L77.8001 29.98C78.6401 30.2601 78.8002 31.36 78.0802 31.86L69.3402 37.88C69.0602 38.08 68.8802 38.4 68.8802 38.76V49.36C68.8802 50.24 67.8802 50.74 67.1801 50.2L58.5202 43.56C58.4001 43.46 58.2402 43.44 58.1001 43.48L47.7202 46.86C46.8802 47.14 46.1002 46.32 46.3802 45.5L50.0001 35.2C50.0602 35.06 50.0202 34.9 49.9402 34.78L43.5202 25.94C43.0002 25.2201 43.5202 24.24 44.4002 24.26L55.3202 24.54C55.4802 24.54 55.6202 24.48 55.7002 24.36L62.1202 15.52C62.6401 14.8 63.7602 15 64.0002 15.84Z" fill="url(#paint14_radial_372_2480)"/>
<path d="M77.8 29.9798L67.4 26.6198C67.26 26.5798 67.14 26.4598 67.1 26.3198L64 15.8399C64 15.8399 63.48 16.2999 64.1 18.5198C64.52 19.9599 65.5601 23.9398 66.16 25.9999C66.5 27.1598 67.2801 27.3198 68.44 27.6799L76.12 30.0399C76.12 30.0399 76.9801 30.2598 77.8 29.9798Z" fill="url(#paint15_radial_372_2480)"/>
<path d="M46.3602 45.5C46.0602 46.34 46.8602 47.14 47.7002 46.86L58.0802 43.48C58.2202 43.44 58.3802 43.46 58.5002 43.56L67.1602 50.2C67.8602 50.74 68.8602 50.24 68.8602 49.36V38.44C68.8602 38.28 68.9401 38.14 69.0602 38.06L78.0602 31.88C78.7802 31.38 78.6202 30.2601 77.7802 30L67.4002 26.62C67.2601 26.58 67.1402 26.46 67.1002 26.32L64.0002 15.84C63.7402 15 62.6401 14.8 62.1202 15.52L55.7002 24.36C55.6202 24.48 55.4601 24.56 55.3202 24.54L44.4002 24.26C43.5202 24.24 43.0002 25.24 43.5202 25.94L49.7602 34.52C49.9601 34.8 50.0202 35.16 49.9002 35.5L46.3602 45.5ZM46.9202 45.7L50.4601 35.7C50.6402 35.18 50.5602 34.62 50.2402 34.16L44.0002 25.6C43.8402 25.4 43.9202 25.18 43.9602 25.12C44.0002 25.04 44.1201 24.88 44.3602 24.88C44.3602 24.88 44.3602 24.88 44.3802 24.88L55.3002 25.16C55.6402 25.18 55.9802 25 56.1802 24.72L62.6001 15.88C62.7202 15.72 62.8602 15.68 62.9602 15.68C63.0002 15.68 63.0202 15.68 63.0402 15.68C63.1202 15.7 63.3402 15.76 63.4002 16L66.5002 26.46C66.6002 26.8 66.8602 27.06 67.1802 27.16L77.5602 30.54C77.8001 30.62 77.8602 30.82 77.8802 30.92C77.9002 31 77.9002 31.22 77.6802 31.36L68.6802 37.54C68.4002 37.74 68.2202 38.06 68.2202 38.42V49.34C68.2202 49.6 68.0402 49.72 67.9602 49.76C67.8802 49.8 67.6801 49.88 67.4802 49.72L58.8201 43.08C58.5402 42.8601 58.1802 42.8 57.8402 42.92L47.4602 46.3C47.2202 46.38 47.0402 46.24 46.9802 46.18C46.9802 46.12 46.8402 45.94 46.9202 45.7Z" fill="url(#paint16_radial_372_2480)"/>
<path opacity="0.24" d="M16.08 38.2599C15.78 38.2199 15.5 38.1999 15.22 38.1799C15.22 38.1999 15.24 38.2399 15.24 38.28L15.32 49.0799C15.32 49.9599 16.32 50.4399 17.02 49.8999L25.54 43.2799C25.66 43.1799 25.82 43.1599 25.96 43.1999L36.26 46.4599C37.1 46.72 37.86 45.9199 37.56 45.0999L34 35.2199C33.8799 34.8999 33.94 34.54 34.14 34.2599L40.24 25.7399C40.44 25.4599 40.48 25.1199 40.4 24.8199L39.3799 24.9199C29.86 25.0599 29.6 39.9199 16.08 38.2599Z" fill="url(#paint17_radial_372_2480)"/>
<path d="M21.8001 15.5199L28.2201 24.3599C28.3001 24.4799 28.4602 24.5599 28.6001 24.54L39.5201 24.2599C40.4001 24.24 40.9201 25.2399 40.4001 25.9399L34.1601 34.5199C33.9602 34.7999 33.9001 35.1599 34.0201 35.5L37.5601 45.5C37.8602 46.34 37.0602 47.14 36.2202 46.8599L25.8401 43.48C25.7001 43.44 25.5401 43.4599 25.4201 43.5599L16.7601 50.2C16.0602 50.7399 15.0602 50.2399 15.0602 49.36V38.44C15.0602 38.28 14.9802 38.1399 14.8601 38.06L5.86013 31.8799C5.14013 31.3799 5.30013 30.26 6.14013 30L16.5201 26.6199C16.6602 26.5799 16.7802 26.4599 16.8202 26.3199L19.9201 15.8599C20.1802 15 21.2802 14.8 21.8001 15.5199Z" fill="url(#paint18_radial_372_2480)"/>
<path d="M12.0201 34.2002C9.68013 32.5401 6.46013 30.7602 6.90013 29.7601L6.14013 30.0002C5.30013 30.2802 5.14013 31.3802 5.86013 31.8802L14.8601 38.0602C14.9802 38.1402 15.0602 38.2802 15.0602 38.4402C15.0202 36.5202 14.3402 35.8402 12.0201 34.2002Z" fill="url(#paint19_radial_372_2480)"/>
<path d="M35.38 30.1802C37.0401 27.8401 39.46 25.0802 38.7201 24.2802L39.5201 24.2602C40.4001 24.2402 40.9201 25.2401 40.4001 25.9402L34 34.7802C33.92 34.9001 33.88 35.0601 33.9401 35.2002C33.32 33.3801 33.7201 32.5202 35.38 30.1802Z" fill="url(#paint20_radial_372_2480)"/>
<path d="M39.52 24.2599L28.6 24.54C28.44 24.54 28.3 24.4799 28.22 24.3599L21.8 15.5199C21.8 15.5199 21.46 16.1399 22.8 17.9999C23.6601 19.2199 25.9801 22.6199 27.2401 24.3599C27.9401 25.3599 28.72 25.2399 29.94 25.1799L37.9801 24.84C37.96 24.8599 38.8601 24.7799 39.52 24.2599Z" fill="url(#paint21_radial_372_2480)"/>
<path d="M19.9201 15.84L16.8202 26.3C16.7802 26.44 16.6602 26.56 16.5201 26.6L6.14013 29.98C5.30013 30.2601 5.14013 31.36 5.86013 31.86L14.6002 37.88C14.8801 38.08 15.0602 38.4 15.0602 38.76V49.36C15.0602 50.24 16.0602 50.74 16.7601 50.2L25.4201 43.56C25.5401 43.46 25.7001 43.44 25.8401 43.48L36.2202 46.86C37.0602 47.14 37.8401 46.32 37.5601 45.5L33.9202 35.2C33.8601 35.06 33.9001 34.9 33.9801 34.78L40.4001 25.94C40.9201 25.2201 40.4001 24.24 39.5201 24.26L28.6001 24.54C28.4401 24.54 28.3001 24.48 28.2201 24.36L21.8001 15.52C21.2802 14.8 20.1802 15 19.9201 15.84Z" fill="url(#paint22_radial_372_2480)"/>
<path d="M19.9201 15.84L16.8202 26.3C16.7802 26.44 16.6602 26.56 16.5201 26.6L6.14013 29.98C5.30013 30.2601 5.14013 31.36 5.86013 31.86L14.6002 37.88C14.8801 38.08 15.0602 38.4 15.0602 38.76V49.36C15.0602 50.24 16.0602 50.74 16.7601 50.2L25.4201 43.56C25.5401 43.46 25.7001 43.44 25.8401 43.48L36.2202 46.86C37.0602 47.14 37.8401 46.32 37.5601 45.5L33.9202 35.2C33.8601 35.06 33.9001 34.9 33.9801 34.78L40.4001 25.94C40.9201 25.2201 40.4001 24.24 39.5201 24.26L28.6001 24.54C28.4401 24.54 28.3001 24.48 28.2201 24.36L21.8001 15.52C21.2802 14.8 20.1802 15 19.9201 15.84Z" fill="url(#paint23_radial_372_2480)"/>
<path opacity="0.24" d="M19.9201 15.84L16.8202 26.3C16.7802 26.44 16.6602 26.56 16.5201 26.6L6.14013 29.98C5.30013 30.2601 5.14013 31.36 5.86013 31.86L14.6002 37.88C14.8801 38.08 15.0602 38.4 15.0602 38.76V49.36C15.0602 50.24 16.0602 50.74 16.7601 50.2L25.4201 43.56C25.5401 43.46 25.7001 43.44 25.8401 43.48L36.2202 46.86C37.0602 47.14 37.8401 46.32 37.5601 45.5L33.9202 35.2C33.8601 35.06 33.9001 34.9 33.9801 34.78L40.4001 25.94C40.9201 25.2201 40.4001 24.24 39.5201 24.26L28.6001 24.54C28.4401 24.54 28.3001 24.48 28.2201 24.36L21.8001 15.52C21.2802 14.8 20.1802 15 19.9201 15.84Z" fill="url(#paint24_radial_372_2480)"/>
<path opacity="0.24" d="M19.9201 15.84L16.8202 26.3C16.7802 26.44 16.6602 26.56 16.5201 26.6L6.14013 29.98C5.30013 30.2601 5.14013 31.36 5.86013 31.86L14.6002 37.88C14.8801 38.08 15.0602 38.4 15.0602 38.76V49.36C15.0602 50.24 16.0602 50.74 16.7601 50.2L25.4201 43.56C25.5401 43.46 25.7001 43.44 25.8401 43.48L36.2202 46.86C37.0602 47.14 37.8401 46.32 37.5601 45.5L33.9202 35.2C33.8601 35.06 33.9001 34.9 33.9801 34.78L40.4001 25.94C40.9201 25.2201 40.4001 24.24 39.5201 24.26L28.6001 24.54C28.4401 24.54 28.3001 24.48 28.2201 24.36L21.8001 15.52C21.2802 14.8 20.1802 15 19.9201 15.84Z" fill="url(#paint25_radial_372_2480)"/>
<path d="M6.14038 29.9798L16.5204 26.5999C16.6603 26.5599 16.7803 26.4398 16.8204 26.2999L19.9204 15.8399C19.9204 15.8399 20.4403 16.2999 19.8204 18.5198C19.4004 19.9599 18.3604 23.9398 17.7604 25.9999C17.4204 27.1598 16.6404 27.3198 15.4803 27.6799L7.80038 30.0399C7.80038 30.0399 6.94039 30.2598 6.14038 29.9798Z" fill="url(#paint26_radial_372_2480)"/>
<path d="M48.56 30.1802C46.8999 27.8401 44.48 25.0802 45.2199 24.2802L44.4199 24.2602C43.5399 24.2402 43.02 25.2401 43.5399 25.9402L49.96 34.7802C50.04 34.9001 50.08 35.0601 50.0199 35.2002C50.5999 33.3801 50.2 32.5202 48.56 30.1802Z" fill="url(#paint27_radial_372_2480)"/>
<path d="M27.6205 26.4C28.9205 28.6 26.7604 32.26 22.8205 34.56C18.8805 36.86 14.6405 36.96 13.3604 34.76C12.0805 32.56 14.2205 28.9 18.1605 26.6C22.1004 24.3 26.3205 24.22 27.6205 26.4Z" fill="url(#paint28_radial_372_2480)"/>
<path d="M65.3601 25.3198C66.6602 27.5199 64.5002 31.1799 60.5602 33.4799C56.6202 35.7798 52.3802 35.8799 51.1002 33.6798C49.8202 31.4798 51.9602 27.8199 55.9002 25.5198C59.8402 23.2198 64.0601 23.1198 65.3601 25.3198Z" fill="url(#paint29_radial_372_2480)"/>
<path d="M34.0402 35.5C33.9202 35.18 33.9801 34.8 34.1801 34.52L40.4001 25.94C40.9201 25.2201 40.4001 24.24 39.5201 24.26L28.6001 24.54C28.4401 24.54 28.3001 24.48 28.2201 24.36L21.8001 15.52C21.2802 14.8 20.1802 15 19.9201 15.84L16.8202 26.3C16.7802 26.4401 16.6602 26.56 16.5201 26.6L6.14013 29.98C5.30013 30.2601 5.14013 31.36 5.86013 31.86L14.8601 38.04C14.9802 38.12 15.0602 38.26 15.0602 38.42V49.34C15.0602 50.22 16.0602 50.72 16.7601 50.18L25.4201 43.54C25.5401 43.44 25.7001 43.42 25.8401 43.46L36.2202 46.84C37.0602 47.12 37.8401 46.3 37.5601 45.48L34.0402 35.5ZM36.9002 46.18C36.8401 46.24 36.6802 46.38 36.4201 46.3L26.0401 42.92C25.7001 42.8201 25.3401 42.88 25.0602 43.08L16.4002 49.74C16.2001 49.9 16.0001 49.82 15.9201 49.78C15.8401 49.74 15.6601 49.6201 15.6601 49.36V38.44C15.6601 38.1 15.4802 37.76 15.2001 37.56L6.20013 31.38C5.98013 31.24 6.00013 31.02 6.00013 30.94C6.02014 30.86 6.06013 30.64 6.32013 30.56L16.7002 27.18C17.0401 27.08 17.2802 26.8 17.3801 26.4801L20.4802 16.0201C20.5602 15.78 20.7601 15.72 20.8401 15.7C20.8602 15.7 20.8801 15.7 20.9201 15.7C21.0202 15.7 21.1801 15.74 21.2802 15.9L27.7002 24.74C27.9001 25.02 28.2402 25.1801 28.5802 25.1801L39.5002 24.9C39.5002 24.9 39.5002 24.9 39.5201 24.9C39.7602 24.9 39.8802 25.08 39.9202 25.14C39.9602 25.2201 40.0401 25.42 39.8802 25.62L33.6401 34.2C33.3201 34.64 33.2402 35.22 33.4201 35.74L36.9601 45.74C37.0801 45.94 36.9601 46.12 36.9002 46.18Z" fill="url(#paint30_radial_372_2480)"/>
<defs>
<radialGradient id="paint0_radial_372_2480" cx="0" cy="0" r="1" gradientUnits="userSpaceOnUse" gradientTransform="translate(35.668 29.0314) scale(38.6039 38.6039)">
<stop stop-color="#FFE030"/>
<stop offset="1" stop-color="#FFB92E"/>
</radialGradient>
<radialGradient id="paint1_radial_372_2480" cx="0" cy="0" r="1" gradientUnits="userSpaceOnUse" gradientTransform="translate(35.668 29.0314) scale(30.3714 30.3714)">
<stop stop-color="#FFEA5F"/>
<stop offset="1" stop-color="#FFBC47" stop-opacity="0"/>
</radialGradient>
<radialGradient id="paint2_radial_372_2480" cx="0" cy="0" r="1" gradientUnits="userSpaceOnUse" gradientTransform="translate(41.9613 60.1465) scale(17.003 17.003)">
<stop offset="0.00132565" stop-color="#7A4400"/>
<stop offset="1" stop-color="#643800"/>
</radialGradient>
<radialGradient id="paint3_radial_372_2480" cx="0" cy="0" r="1" gradientUnits="userSpaceOnUse" gradientTransform="translate(42.2076 65.7989) scale(13.5281 4.09036)">
<stop offset="0.2479" stop-color="#FF0000"/>
<stop offset="1" stop-color="#C20000"/>
</radialGradient>
<linearGradient id="paint4_linear_372_2480" x1="63.8335" y1="56.629" x2="20.3607" y2="56.629" gradientUnits="userSpaceOnUse">
<stop offset="0.00132565" stop-color="#3C2200"/>
<stop offset="0.5" stop-color="#512D00"/>
<stop offset="1" stop-color="#3C2200"/>
</linearGradient>
<radialGradient id="paint5_radial_372_2480" cx="0" cy="0" r="1" gradientUnits="userSpaceOnUse" gradientTransform="translate(41.9624 55.3585) scale(37.2925 37.2925)">
<stop offset="0.00132565" stop-color="white"/>
<stop offset="1" stop-color="#A9BCBE"/>
</radialGradient>
<radialGradient id="paint6_radial_372_2480" cx="0" cy="0" r="1" gradientUnits="userSpaceOnUse" gradientTransform="translate(71.3918 40.8889) rotate(34.2288) scale(18.1596 18.2709)">
<stop stop-color="#FF8000" stop-opacity="0.5"/>
<stop offset="0.995" stop-color="#FF8000" stop-opacity="0"/>
</radialGradient>
<radialGradient id="paint7_radial_372_2480" cx="0" cy="0" r="1" gradientUnits="userSpaceOnUse" gradientTransform="translate(12.5395 40.8948) rotate(145.771) scale(18.1596 18.2709)">
<stop stop-color="#FF8000" stop-opacity="0.5"/>
<stop offset="0.995" stop-color="#FF8000" stop-opacity="0.18"/>
</radialGradient>
<radialGradient id="paint8_radial_372_2480" cx="0" cy="0" r="1" gradientUnits="userSpaceOnUse" gradientTransform="translate(57.1852 36.4188) rotate(180) scale(26.9186 26.9186)">
<stop stop-color="white"/>
<stop offset="1" stop-color="white" stop-opacity="0"/>
</radialGradient>
<radialGradient id="paint9_radial_372_2480" cx="0" cy="0" r="1" gradientUnits="userSpaceOnUse" gradientTransform="translate(61.7536 28.5111) rotate(-170.266) scale(17.4427 17.4427)">
<stop stop-color="#FFEA5F"/>
<stop offset="0.4904" stop-color="#FFE95D"/>
<stop offset="0.667" stop-color="#FFE756"/>
<stop offset="0.793" stop-color="#FFE34B"/>
<stop offset="0.8947" stop-color="#FEDD3A"/>
<stop offset="0.9809" stop-color="#FED524"/>
<stop offset="1" stop-color="#FED31E"/>
</radialGradient>
<radialGradient id="paint10_radial_372_2480" cx="0" cy="0" r="1" gradientUnits="userSpaceOnUse" gradientTransform="translate(73.2799 37.4785) rotate(-130.782) scale(3.22596 8.68621)">
<stop stop-color="#D86D00"/>
<stop offset="0.3292" stop-color="#DC6C0A" stop-opacity="0.6708"/>
<stop offset="0.8792" stop-color="#E86823" stop-opacity="0.1208"/>
<stop offset="1" stop-color="#EB672A" stop-opacity="0"/>
</radialGradient>
<radialGradient id="paint11_radial_372_2480" cx="0" cy="0" r="1" gradientUnits="userSpaceOnUse" gradientTransform="translate(53.1581 48.193) rotate(-16.5811) scale(9.59045 4.5447)">
<stop stop-color="#D86D00"/>
<stop offset="0.3292" stop-color="#DC6C0A" stop-opacity="0.6708"/>
<stop offset="0.8792" stop-color="#E86823" stop-opacity="0.1208"/>
<stop offset="1" stop-color="#EB672A" stop-opacity="0"/>
</radialGradient>
<radialGradient id="paint12_radial_372_2480" cx="0" cy="0" r="1" gradientUnits="userSpaceOnUse" gradientTransform="translate(56.4121 53.9817) rotate(12.5087) scale(12.6793 12.9987)">
<stop stop-color="#D86D00"/>
<stop offset="0.3292" stop-color="#DC6C0A" stop-opacity="0.6708"/>
<stop offset="0.8792" stop-color="#E86823" stop-opacity="0.1208"/>
<stop offset="1" stop-color="#EB672A" stop-opacity="0"/>
</radialGradient>
<radialGradient id="paint13_radial_372_2480" cx="0" cy="0" r="1" gradientUnits="userSpaceOnUse" gradientTransform="translate(54.6876 39.3627) rotate(31.2857) scale(13.4065 10.1333)">
<stop stop-color="#FFA754"/>
<stop offset="0.3697" stop-color="#FFB152" stop-opacity="0.6303"/>
<stop offset="0.9874" stop-color="#FFCA4B" stop-opacity="0.0126062"/>
<stop offset="1" stop-color="#FFCB4B" stop-opacity="0"/>
</radialGradient>
<radialGradient id="paint14_radial_372_2480" cx="0" cy="0" r="1" gradientUnits="userSpaceOnUse" gradientTransform="translate(62.3623 28.1702) rotate(31.2857) scale(8.07752 6.10538)">
<stop stop-color="white"/>
<stop offset="1" stop-color="white" stop-opacity="0"/>
</radialGradient>
<radialGradient id="paint15_radial_372_2480" cx="0" cy="0" r="1" gradientUnits="userSpaceOnUse" gradientTransform="translate(73.4649 20.4853) rotate(56.5612) scale(12.6339 8.69468)">
<stop stop-color="#ED9900"/>
<stop offset="1" stop-color="#ED9900" stop-opacity="0"/>
</radialGradient>
<radialGradient id="paint16_radial_372_2480" cx="0" cy="0" r="1" gradientUnits="userSpaceOnUse" gradientTransform="translate(60.1526 32.5435) rotate(180) scale(14.9482 14.9482)">
<stop stop-color="#A3541E" stop-opacity="0.5"/>
<stop offset="0.5109" stop-color="#A5551D" stop-opacity="0.7555"/>
<stop offset="0.695" stop-color="#AC5819" stop-opacity="0.8475"/>
<stop offset="0.8261" stop-color="#B75E12" stop-opacity="0.9131"/>
<stop offset="0.9315" stop-color="#C86609" stop-opacity="0.9657"/>
<stop offset="1" stop-color="#D86D00"/>
</radialGradient>
<radialGradient id="paint17_radial_372_2480" cx="0" cy="0" r="1" gradientUnits="userSpaceOnUse" gradientTransform="translate(26.7427 36.4189) scale(26.9186 26.9186)">
<stop stop-color="white"/>
<stop offset="1" stop-color="white" stop-opacity="0"/>
</radialGradient>
<radialGradient id="paint18_radial_372_2480" cx="0" cy="0" r="1" gradientUnits="userSpaceOnUse" gradientTransform="translate(22.1767 28.5114) rotate(-9.73431) scale(17.4427)">
<stop stop-color="#FFEA5F"/>
<stop offset="0.4904" stop-color="#FFE95D"/>
<stop offset="0.667" stop-color="#FFE756"/>
<stop offset="0.793" stop-color="#FFE34B"/>
<stop offset="0.8947" stop-color="#FEDD3A"/>
<stop offset="0.9809" stop-color="#FED524"/>
<stop offset="1" stop-color="#FED31E"/>
</radialGradient>
<radialGradient id="paint19_radial_372_2480" cx="0" cy="0" r="1" gradientUnits="userSpaceOnUse" gradientTransform="translate(10.6501 37.4771) rotate(-49.2176) scale(3.22597 8.68622)">
<stop stop-color="#D86D00"/>
<stop offset="0.3292" stop-color="#DC6C0A" stop-opacity="0.6708"/>
<stop offset="0.8792" stop-color="#E86823" stop-opacity="0.1208"/>
<stop offset="1" stop-color="#EB672A" stop-opacity="0"/>
</radialGradient>
<radialGradient id="paint20_radial_372_2480" cx="0" cy="0" r="1" gradientUnits="userSpaceOnUse" gradientTransform="translate(37.4954 33.3872) rotate(-150.251) scale(3.22613 8.68612)">
<stop stop-color="#D86D00"/>
<stop offset="0.3292" stop-color="#DC6C0A" stop-opacity="0.6708"/>
<stop offset="0.8792" stop-color="#E86823" stop-opacity="0.1208"/>
<stop offset="1" stop-color="#EB672A" stop-opacity="0"/>
</radialGradient>
<radialGradient id="paint21_radial_372_2480" cx="0" cy="0" r="1" gradientUnits="userSpaceOnUse" gradientTransform="translate(32.2729 16.7576) rotate(37.0947) scale(12.632 8.69457)">
<stop stop-color="#ED9900"/>
<stop offset="1" stop-color="#ED9900" stop-opacity="0"/>
</radialGradient>
<radialGradient id="paint22_radial_372_2480" cx="0" cy="0" r="1" gradientUnits="userSpaceOnUse" gradientTransform="translate(30.7706 48.1879) rotate(-163.419) scale(9.59045 4.5447)">
<stop stop-color="#D86D00"/>
<stop offset="0.3292" stop-color="#DC6C0A" stop-opacity="0.6708"/>
<stop offset="0.8792" stop-color="#E86823" stop-opacity="0.1208"/>
<stop offset="1" stop-color="#EB672A" stop-opacity="0"/>
</radialGradient>
<radialGradient id="paint23_radial_372_2480" cx="0" cy="0" r="1" gradientUnits="userSpaceOnUse" gradientTransform="translate(27.5192 53.9814) rotate(167.491) scale(12.6793 12.9987)">
<stop stop-color="#D86D00"/>
<stop offset="0.3292" stop-color="#DC6C0A" stop-opacity="0.6708"/>
<stop offset="0.8792" stop-color="#E86823" stop-opacity="0.1208"/>
<stop offset="1" stop-color="#EB672A" stop-opacity="0"/>
</radialGradient>
<radialGradient id="paint24_radial_372_2480" cx="0" cy="0" r="1" gradientUnits="userSpaceOnUse" gradientTransform="translate(29.2444 39.3676) rotate(148.714) scale(13.4065 10.1333)">
<stop stop-color="#FFA754"/>
<stop offset="0.3697" stop-color="#FFB152" stop-opacity="0.6303"/>
<stop offset="0.9874" stop-color="#FFCA4B" stop-opacity="0.0126062"/>
<stop offset="1" stop-color="#FFCB4B" stop-opacity="0"/>
</radialGradient>
<radialGradient id="paint25_radial_372_2480" cx="0" cy="0" r="1" gradientUnits="userSpaceOnUse" gradientTransform="translate(21.5697 28.1752) rotate(148.714) scale(8.07752 6.10538)">
<stop stop-color="white"/>
<stop offset="1" stop-color="white" stop-opacity="0"/>
</radialGradient>
<radialGradient id="paint26_radial_372_2480" cx="0" cy="0" r="1" gradientUnits="userSpaceOnUse" gradientTransform="translate(10.4677 20.4807) rotate(123.439) scale(12.6339 8.69467)">
<stop stop-color="#ED9900"/>
<stop offset="1" stop-color="#ED9900" stop-opacity="0"/>
</radialGradient>
<radialGradient id="paint27_radial_372_2480" cx="0" cy="0" r="1" gradientUnits="userSpaceOnUse" gradientTransform="translate(46.4367 33.385) rotate(-29.7489) scale(3.22613 8.68612)">
<stop stop-color="#D86D00"/>
<stop offset="0.3292" stop-color="#DC6C0A" stop-opacity="0.6708"/>
<stop offset="0.8792" stop-color="#E86823" stop-opacity="0.1208"/>
<stop offset="1" stop-color="#EB672A" stop-opacity="0"/>
</radialGradient>
<radialGradient id="paint28_radial_372_2480" cx="0" cy="0" r="1" gradientUnits="userSpaceOnUse" gradientTransform="translate(20.4904 30.5377) rotate(-31.91) scale(8.32474 4.48056)">
<stop stop-color="white" stop-opacity="0.5"/>
<stop offset="0.995" stop-color="white" stop-opacity="0"/>
</radialGradient>
<radialGradient id="paint29_radial_372_2480" cx="0" cy="0" r="1" gradientUnits="userSpaceOnUse" gradientTransform="translate(58.2236 29.4386) rotate(-31.91) scale(8.32475 4.48057)">
<stop stop-color="white" stop-opacity="0.5"/>
<stop offset="0.995" stop-color="white" stop-opacity="0"/>
</radialGradient>
<radialGradient id="paint30_radial_372_2480" cx="0" cy="0" r="1" gradientUnits="userSpaceOnUse" gradientTransform="translate(23.7756 32.5435) scale(14.9482)">
<stop stop-color="#A3541E" stop-opacity="0.5"/>
<stop offset="0.5109" stop-color="#A5551D" stop-opacity="0.7555"/>
<stop offset="0.695" stop-color="#AC5819" stop-opacity="0.8475"/>
<stop offset="0.8261" stop-color="#B75E12" stop-opacity="0.9131"/>
<stop offset="0.9315" stop-color="#C86609" stop-opacity="0.9657"/>
<stop offset="1" stop-color="#D86D00"/>
</radialGradient>
</defs>
</svg>
