<svg width="24" height="24" viewBox="0 0 24 24" fill="none" xmlns="http://www.w3.org/2000/svg">
<mask id="mask0_131_424" style="mask-type:alpha" maskUnits="userSpaceOnUse" x="0" y="0" width="24" height="24">
<rect width="24" height="24" fill="#D9D9D9"/>
</mask>
<g mask="url(#mask0_131_424)">
<mask id="mask1_131_424" style="mask-type:alpha" maskUnits="userSpaceOnUse" x="0" y="0" width="24" height="24">
<rect width="24" height="24" fill="#D9D9D9"/>
</mask>
<g mask="url(#mask1_131_424)">
<path d="M11.9882 16.906C12.9184 16.906 13.7476 16.623 14.4757 16.057C15.2039 15.491 15.7346 14.7698 16.068 13.8934H7.91264C8.24597 14.7698 8.77601 15.491 9.50275 16.057C10.2295 16.623 11.0579 16.906 11.9882 16.906ZM9.08053 12.0897C9.5398 12.0897 9.92922 11.927 10.2488 11.6016C10.5684 11.2761 10.7282 10.8809 10.7282 10.4159C10.7282 9.95097 10.5674 9.55672 10.2459 9.23318C9.92446 8.90965 9.53409 8.74788 9.07482 8.74788C8.61557 8.74788 8.22615 8.91062 7.90658 9.23609C7.58701 9.56154 7.42722 9.95675 7.42722 10.4217C7.42722 10.8867 7.58795 11.2809 7.90942 11.6044C8.23091 11.928 8.62128 12.0897 9.08053 12.0897ZM14.9058 12.0897C15.365 12.0897 15.7544 11.927 16.074 11.6016C16.3936 11.2761 16.5534 10.8809 16.5534 10.4159C16.5534 9.95097 16.3926 9.55672 16.0712 9.23318C15.7497 8.90965 15.3593 8.74788 14.9001 8.74788C14.4408 8.74788 14.0514 8.91062 13.7318 9.23609C13.4122 9.56154 13.2524 9.95675 13.2524 10.4217C13.2524 10.8867 13.4132 11.2809 13.7347 11.6044C14.0561 11.928 14.4465 12.0897 14.9058 12.0897ZM6.784 5.42565L10.1966 0.891988C10.4231 0.585087 10.6922 0.359697 11.0036 0.215819C11.3151 0.0719404 11.644 0 11.9903 0C12.3366 0 12.6654 0.0719404 12.9769 0.215819C13.2884 0.359697 13.5575 0.585087 13.784 0.891988L17.1966 5.42565L22.4151 7.20963C22.9134 7.37182 23.3022 7.65793 23.5813 8.06794C23.8604 8.47798 24 8.93093 24 9.4268C24 9.65565 23.967 9.88382 23.9009 10.1113C23.8348 10.3388 23.7263 10.5568 23.5752 10.7653L20.1772 15.5397L20.3034 20.6066C20.3244 21.2795 20.1054 21.8466 19.6462 22.3079C19.1871 22.7693 18.6521 23 18.0413 23C18.0235 23 17.8123 22.9721 17.4078 22.9164L11.9903 21.3438L6.57281 22.9164C6.46764 22.959 6.35908 22.9836 6.24715 22.9902C6.13522 22.9967 6.03261 23 5.93931 23C5.32282 23 4.78642 22.7693 4.33012 22.3079C3.87381 21.8466 3.65618 21.2795 3.67721 20.6066L3.80343 15.5078L0.424773 10.7653C0.273737 10.5559 0.165183 10.3371 0.0991095 10.1087C0.0330365 9.88036 0 9.65199 0 9.4236C0 8.94173 0.138646 8.49359 0.415938 8.07919C0.69323 7.66476 1.08048 7.37082 1.57768 7.19736L6.784 5.42565ZM7.95388 7.0769L2.18445 9.02305C2.06309 9.06401 1.98016 9.14797 1.93565 9.27494C1.89116 9.40191 1.90936 9.51864 1.99027 9.62514L5.70872 14.9377L5.57036 20.6459C5.56228 20.7852 5.61083 20.8958 5.71601 20.9777C5.82119 21.0596 5.93851 21.0801 6.06799 21.0391L11.9903 19.3559L17.9126 21.0711C18.0421 21.112 18.1594 21.0916 18.2646 21.0096C18.3698 20.9277 18.4183 20.8171 18.4102 20.6779L18.2719 14.9377L21.9903 9.68903C22.0712 9.58253 22.0894 9.46579 22.0449 9.33883C22.0004 9.21186 21.9175 9.1279 21.7961 9.08694L16.0267 7.0769L12.2937 2.08866C12.2209 1.98218 12.1198 1.92894 11.9903 1.92894C11.8608 1.92894 11.7597 1.98218 11.6869 2.08866L7.95388 7.0769Z" fill="#F5F9FF"/>
</g>
</g>
</svg>
