<svg width="16" height="16" viewBox="0 0 16 16" fill="none" xmlns="http://www.w3.org/2000/svg">
<mask id="mask0_263_1099" style="mask-type:alpha" maskUnits="userSpaceOnUse" x="0" y="0" width="16" height="16">
<rect width="16" height="16" fill="#D9D9D9"/>
</mask>
<g mask="url(#mask0_263_1099)">
<path d="M0.666016 13.3333V11.4666C0.666016 11.0888 0.763349 10.7415 0.958016 10.4246C1.15224 10.1082 1.41046 9.86663 1.73268 9.69996C2.42157 9.35551 3.12157 9.09707 3.83268 8.92463C4.54379 8.75263 5.26602 8.66663 5.99935 8.66663C6.73268 8.66663 7.4549 8.75263 8.16602 8.92463C8.87713 9.09707 9.57713 9.35551 10.266 9.69996C10.5882 9.86663 10.8465 10.1082 11.0407 10.4246C11.2353 10.7415 11.3327 11.0888 11.3327 11.4666V13.3333H0.666016ZM12.666 13.3333V11.3333C12.666 10.8444 12.53 10.3748 12.258 9.92463C11.9856 9.47485 11.5993 9.08885 11.0993 8.76663C11.666 8.83329 12.1993 8.94707 12.6993 9.10796C13.1993 9.26929 13.666 9.46663 14.0993 9.69996C14.4993 9.92218 14.8049 10.1693 15.016 10.4413C15.2271 10.7137 15.3327 11.0111 15.3327 11.3333V13.3333H12.666ZM5.99935 7.99996C5.26602 7.99996 4.63824 7.73885 4.11602 7.21663C3.59379 6.6944 3.33268 6.06663 3.33268 5.33329C3.33268 4.59996 3.59379 3.97218 4.11602 3.44996C4.63824 2.92774 5.26602 2.66663 5.99935 2.66663C6.73268 2.66663 7.36046 2.92774 7.88268 3.44996C8.4049 3.97218 8.66602 4.59996 8.66602 5.33329C8.66602 6.06663 8.4049 6.6944 7.88268 7.21663C7.36046 7.73885 6.73268 7.99996 5.99935 7.99996ZM9.99935 7.99996C9.87713 7.99996 9.72157 7.98618 9.53268 7.95863C9.34379 7.93063 9.18824 7.89996 9.06602 7.86663C9.36602 7.51107 9.59646 7.11663 9.75735 6.68329C9.91868 6.24996 9.99935 5.79996 9.99935 5.33329C9.99935 4.86663 9.91868 4.41663 9.75735 3.98329C9.59646 3.54996 9.36602 3.15551 9.06602 2.79996C9.22157 2.7444 9.37713 2.70818 9.53268 2.69129C9.68824 2.67485 9.84379 2.66663 9.99935 2.66663C10.7327 2.66663 11.3605 2.92774 11.8827 3.44996C12.4049 3.97218 12.666 4.59996 12.666 5.33329C12.666 6.06663 12.4049 6.6944 11.8827 7.21663C11.3605 7.73885 10.7327 7.99996 9.99935 7.99996ZM1.99935 12H9.99935V11.4666C9.99935 11.3444 9.9689 11.2333 9.90802 11.1333C9.84668 11.0333 9.76602 10.9555 9.66601 10.9C9.06602 10.6 8.46046 10.3748 7.84935 10.2246C7.23824 10.0748 6.62157 9.99996 5.99935 9.99996C5.37713 9.99996 4.76046 10.0748 4.14935 10.2246C3.53824 10.3748 2.93268 10.6 2.33268 10.9C2.23268 10.9555 2.15224 11.0333 2.09135 11.1333C2.03002 11.2333 1.99935 11.3444 1.99935 11.4666V12ZM5.99935 6.66663C6.36602 6.66663 6.68002 6.53596 6.94135 6.27463C7.20224 6.01374 7.33268 5.69996 7.33268 5.33329C7.33268 4.96663 7.20224 4.65285 6.94135 4.39196C6.68002 4.13063 6.36602 3.99996 5.99935 3.99996C5.63268 3.99996 5.3189 4.13063 5.05802 4.39196C4.79668 4.65285 4.66602 4.96663 4.66602 5.33329C4.66602 5.69996 4.79668 6.01374 5.05802 6.27463C5.3189 6.53596 5.63268 6.66663 5.99935 6.66663Z" fill="white"/>
</g>
</svg>
